<svg width="288" height="92" viewBox="0 0 288 92" fill="none" xmlns="http://www.w3.org/2000/svg">
<path d="M34.855 14.5C42.335 14.5 48.4833 16.03 53.3 19.09C58.1167 22.0933 60.5817 26.57 60.695 32.52V33.54H43.1V33.2C43.1 31.5 42.4767 30.0833 41.23 28.95C39.9833 27.8167 38.085 27.25 35.535 27.25C33.0417 27.25 31.115 27.6183 29.755 28.355C28.4517 29.0917 27.8 29.9983 27.8 31.075C27.8 32.605 28.7067 33.7383 30.52 34.475C32.3333 35.2117 35.2517 35.9767 39.275 36.77C43.9783 37.7333 47.8317 38.7533 50.835 39.83C53.895 40.85 56.5583 42.55 58.825 44.93C61.0917 47.31 62.2533 50.54 62.31 54.62C62.31 61.5333 59.9583 66.6617 55.255 70.005C50.6083 73.3483 44.375 75.02 36.555 75.02C27.4317 75.02 20.32 73.49 15.22 70.43C10.1767 67.37 7.655 61.9583 7.655 54.195H25.42C25.42 57.1417 26.185 59.125 27.715 60.145C29.245 61.1083 31.625 61.59 34.855 61.59C37.235 61.59 39.19 61.335 40.72 60.825C42.3067 60.315 43.1 59.2667 43.1 57.68C43.1 56.2633 42.2217 55.215 40.465 54.535C38.765 53.7983 35.96 53.0333 32.05 52.24C27.29 51.22 23.3517 50.1717 20.235 49.095C17.1183 47.9617 14.3983 46.12 12.075 43.57C9.75167 41.02 8.59 37.5633 8.59 33.2C8.59 26.7967 11.055 22.0933 15.985 19.09C20.9717 16.03 27.2617 14.5 34.855 14.5Z" fill="url(#paint0_linear_65_14)"/>
<path d="M68 8H1V81H68V8Z" stroke="#744FD7" stroke-width="2"/>
<path d="M93.863 35.466C93.863 36.852 93.522 38.062 92.84 39.096C92.158 40.13 91.168 40.933 89.87 41.505C88.594 42.055 87.032 42.33 85.184 42.33C84.37 42.33 83.567 42.275 82.775 42.165C82.005 42.055 81.257 41.901 80.531 41.703C79.827 41.483 79.156 41.219 78.518 40.911V36.258C79.64 36.742 80.795 37.193 81.983 37.611C83.193 38.007 84.392 38.205 85.58 38.205C86.394 38.205 87.043 38.095 87.527 37.875C88.033 37.655 88.396 37.358 88.616 36.984C88.858 36.61 88.979 36.181 88.979 35.697C88.979 35.103 88.77 34.597 88.352 34.179C87.956 33.761 87.417 33.376 86.735 33.024C86.053 32.65 85.272 32.254 84.392 31.836C83.842 31.572 83.248 31.264 82.61 30.912C81.972 30.538 81.356 30.087 80.762 29.559C80.19 29.009 79.717 28.349 79.343 27.579C78.969 26.809 78.782 25.885 78.782 24.807C78.782 23.399 79.101 22.2 79.739 21.21C80.399 20.198 81.323 19.428 82.511 18.9C83.721 18.372 85.14 18.108 86.768 18.108C88 18.108 89.166 18.251 90.266 18.537C91.388 18.823 92.554 19.23 93.764 19.758L92.147 23.652C91.069 23.212 90.101 22.871 89.243 22.629C88.385 22.387 87.505 22.266 86.603 22.266C85.987 22.266 85.459 22.365 85.019 22.563C84.579 22.761 84.238 23.036 83.996 23.388C83.776 23.74 83.666 24.158 83.666 24.642C83.666 25.192 83.831 25.665 84.161 26.061C84.491 26.435 84.986 26.798 85.646 27.15C86.306 27.502 87.131 27.92 88.121 28.404C89.331 28.976 90.354 29.57 91.19 30.186C92.048 30.802 92.708 31.528 93.17 32.364C93.632 33.2 93.863 34.234 93.863 35.466ZM105.076 42.33C103.294 42.33 101.776 42.011 100.522 41.373C99.2678 40.713 98.3108 39.701 97.6508 38.337C96.9908 36.973 96.6608 35.224 96.6608 33.09C96.6608 30.89 97.0348 29.097 97.7828 27.711C98.5308 26.325 99.5648 25.302 100.885 24.642C102.227 23.982 103.767 23.652 105.505 23.652C106.737 23.652 107.804 23.773 108.706 24.015C109.63 24.257 110.433 24.543 111.115 24.873L109.663 28.668C108.893 28.36 108.167 28.107 107.485 27.909C106.825 27.711 106.165 27.612 105.505 27.612C104.647 27.612 103.932 27.821 103.36 28.239C102.788 28.635 102.359 29.24 102.073 30.054C101.809 30.846 101.677 31.847 101.677 33.057C101.677 34.245 101.82 35.235 102.106 36.027C102.414 36.797 102.854 37.38 103.426 37.776C103.998 38.15 104.691 38.337 105.505 38.337C106.539 38.337 107.452 38.205 108.244 37.941C109.036 37.655 109.806 37.27 110.554 36.786V40.977C109.806 41.461 109.014 41.802 108.178 42C107.364 42.22 106.33 42.33 105.076 42.33ZM119.618 22.035C119.618 22.915 119.585 23.762 119.519 24.576C119.475 25.39 119.431 25.962 119.387 26.292H119.651C120.047 25.676 120.509 25.181 121.037 24.807C121.565 24.411 122.148 24.125 122.786 23.949C123.446 23.751 124.139 23.652 124.865 23.652C126.163 23.652 127.296 23.883 128.264 24.345C129.232 24.807 129.98 25.522 130.508 26.49C131.058 27.458 131.333 28.712 131.333 30.252V42H126.416V31.473C126.416 30.175 126.174 29.207 125.69 28.569C125.228 27.909 124.502 27.579 123.512 27.579C122.522 27.579 121.741 27.81 121.169 28.272C120.619 28.734 120.223 29.405 119.981 30.285C119.739 31.165 119.618 32.243 119.618 33.519V42H114.701V16.92H119.618V22.035ZM143.814 23.652C145.486 23.652 146.916 23.971 148.104 24.609C149.314 25.247 150.249 26.171 150.909 27.381C151.569 28.591 151.899 30.076 151.899 31.836V34.212H140.283C140.327 35.598 140.734 36.687 141.504 37.479C142.296 38.271 143.385 38.667 144.771 38.667C145.937 38.667 146.993 38.557 147.939 38.337C148.885 38.095 149.864 37.732 150.876 37.248V41.043C149.996 41.483 149.061 41.802 148.071 42C147.103 42.22 145.926 42.33 144.54 42.33C142.736 42.33 141.141 42 139.755 41.34C138.369 40.658 137.28 39.635 136.488 38.271C135.696 36.907 135.3 35.191 135.3 33.123C135.3 31.011 135.652 29.262 136.356 27.876C137.082 26.468 138.083 25.412 139.359 24.708C140.635 24.004 142.12 23.652 143.814 23.652ZM143.847 27.15C142.901 27.15 142.109 27.458 141.471 28.074C140.855 28.69 140.492 29.647 140.382 30.945H147.279C147.279 30.219 147.147 29.57 146.883 28.998C146.641 28.426 146.267 27.975 145.761 27.645C145.255 27.315 144.617 27.15 143.847 27.15ZM177.04 23.652C179.086 23.652 180.626 24.18 181.66 25.236C182.716 26.27 183.244 27.942 183.244 30.252V42H178.327V31.473C178.327 30.175 178.107 29.207 177.667 28.569C177.227 27.909 176.545 27.579 175.621 27.579C174.323 27.579 173.399 28.041 172.849 28.965C172.299 29.889 172.024 31.22 172.024 32.958V42H167.107V31.473C167.107 30.615 167.008 29.9 166.81 29.328C166.612 28.756 166.315 28.327 165.919 28.041C165.523 27.733 165.017 27.579 164.401 27.579C163.499 27.579 162.784 27.81 162.256 28.272C161.728 28.734 161.354 29.405 161.134 30.285C160.914 31.165 160.804 32.243 160.804 33.519V42H155.887V23.982H159.649L160.309 26.292H160.573C160.947 25.676 161.409 25.181 161.959 24.807C162.509 24.411 163.114 24.125 163.774 23.949C164.456 23.751 165.138 23.652 165.82 23.652C167.14 23.652 168.262 23.872 169.186 24.312C170.11 24.73 170.814 25.39 171.298 26.292H171.727C172.277 25.368 173.036 24.697 174.004 24.279C174.994 23.861 176.006 23.652 177.04 23.652ZM195.731 23.652C197.403 23.652 198.833 23.971 200.021 24.609C201.231 25.247 202.166 26.171 202.826 27.381C203.486 28.591 203.816 30.076 203.816 31.836V34.212H192.2C192.244 35.598 192.651 36.687 193.421 37.479C194.213 38.271 195.302 38.667 196.688 38.667C197.854 38.667 198.91 38.557 199.856 38.337C200.802 38.095 201.781 37.732 202.793 37.248V41.043C201.913 41.483 200.978 41.802 199.988 42C199.02 42.22 197.843 42.33 196.457 42.33C194.653 42.33 193.058 42 191.672 41.34C190.286 40.658 189.197 39.635 188.405 38.271C187.613 36.907 187.217 35.191 187.217 33.123C187.217 31.011 187.569 29.262 188.273 27.876C188.999 26.468 190 25.412 191.276 24.708C192.552 24.004 194.037 23.652 195.731 23.652ZM195.764 27.15C194.818 27.15 194.026 27.458 193.388 28.074C192.772 28.69 192.409 29.647 192.299 30.945H199.196C199.196 30.219 199.064 29.57 198.8 28.998C198.558 28.426 198.184 27.975 197.678 27.645C197.172 27.315 196.534 27.15 195.764 27.15ZM220.376 36.654C220.376 37.864 220.09 38.898 219.518 39.756C218.946 40.592 218.088 41.23 216.944 41.67C215.8 42.11 214.381 42.33 212.687 42.33C211.433 42.33 210.355 42.242 209.453 42.066C208.551 41.912 207.649 41.648 206.747 41.274V37.215C207.715 37.655 208.76 38.018 209.882 38.304C211.004 38.59 211.994 38.733 212.852 38.733C213.82 38.733 214.502 38.59 214.898 38.304C215.316 38.018 215.525 37.644 215.525 37.182C215.525 36.874 215.437 36.599 215.261 36.357C215.107 36.115 214.755 35.84 214.205 35.532C213.655 35.224 212.797 34.828 211.631 34.344C210.509 33.86 209.585 33.387 208.859 32.925C208.133 32.441 207.594 31.869 207.242 31.209C206.89 30.527 206.714 29.68 206.714 28.668C206.714 26.996 207.363 25.742 208.661 24.906C209.959 24.07 211.686 23.652 213.842 23.652C214.964 23.652 216.031 23.762 217.043 23.982C218.055 24.202 219.1 24.565 220.178 25.071L218.693 28.602C218.099 28.338 217.527 28.107 216.977 27.909C216.427 27.711 215.888 27.557 215.36 27.447C214.854 27.337 214.326 27.282 213.776 27.282C213.05 27.282 212.5 27.381 212.126 27.579C211.774 27.777 211.598 28.074 211.598 28.47C211.598 28.756 211.686 29.02 211.862 29.262C212.06 29.482 212.423 29.724 212.951 29.988C213.501 30.252 214.304 30.604 215.36 31.044C216.394 31.462 217.285 31.902 218.033 32.364C218.781 32.804 219.353 33.365 219.749 34.047C220.167 34.707 220.376 35.576 220.376 36.654ZM241.082 34.6685H229.464V32.6865H241.082V34.6685ZM259.711 42H248.986V39.162L251.857 37.842V22.596L248.986 21.276V18.438H259.711V21.276L256.84 22.596V37.842L259.711 39.162V42ZM284.615 42H278.279L268.016 24.18H267.884C267.906 24.73 267.928 25.291 267.95 25.863C267.972 26.413 267.994 26.974 268.016 27.546C268.06 28.096 268.093 28.657 268.115 29.229C268.137 29.779 268.159 30.34 268.181 30.912V42H263.726V18.438H270.029L280.259 36.093H280.358C280.336 35.543 280.314 35.004 280.292 34.476C280.27 33.926 280.248 33.387 280.226 32.859C280.226 32.309 280.215 31.77 280.193 31.242C280.171 30.692 280.149 30.142 280.127 29.592V18.438H284.615V42Z" fill="url(#paint1_linear_65_14)"/>
<path d="M143.212 71C143.094 70.616 142.961 70.2213 142.812 69.816C142.673 69.4107 142.534 69.0053 142.396 68.6H138.076C137.937 69.0053 137.793 69.4107 137.644 69.816C137.505 70.2213 137.377 70.616 137.26 71H134.668C135.084 69.8053 135.478 68.7013 135.852 67.688C136.225 66.6747 136.588 65.72 136.94 64.824C137.302 63.928 137.654 63.08 137.996 62.28C138.348 61.4693 138.71 60.68 139.084 59.912H141.468C141.83 60.68 142.188 61.4693 142.54 62.28C142.892 63.08 143.244 63.928 143.596 64.824C143.958 65.72 144.326 66.6747 144.7 67.688C145.073 68.7013 145.468 69.8053 145.884 71H143.212ZM140.22 62.424C140.166 62.584 140.086 62.8027 139.98 63.08C139.873 63.3573 139.75 63.6773 139.612 64.04C139.473 64.4027 139.318 64.8027 139.148 65.24C138.988 65.6773 138.822 66.136 138.652 66.616H141.804C141.633 66.136 141.468 65.6773 141.308 65.24C141.148 64.8027 140.993 64.4027 140.844 64.04C140.705 63.6773 140.582 63.3573 140.476 63.08C140.369 62.8027 140.284 62.584 140.22 62.424ZM149.019 66.728C149.019 67.464 149.185 68.056 149.515 68.504C149.846 68.952 150.337 69.176 150.987 69.176C151.201 69.176 151.398 69.1707 151.579 69.16C151.761 69.1387 151.91 69.1173 152.027 69.096V64.76C151.878 64.664 151.681 64.584 151.435 64.52C151.201 64.456 150.961 64.424 150.715 64.424C149.585 64.424 149.019 65.192 149.019 66.728ZM154.411 70.728C154.198 70.792 153.953 70.856 153.675 70.92C153.398 70.9733 153.105 71.0213 152.795 71.064C152.497 71.1067 152.187 71.1387 151.867 71.16C151.558 71.192 151.259 71.208 150.971 71.208C150.278 71.208 149.659 71.1067 149.115 70.904C148.571 70.7013 148.113 70.4133 147.739 70.04C147.366 69.656 147.078 69.1973 146.875 68.664C146.683 68.12 146.587 67.512 146.587 66.84C146.587 66.1573 146.673 65.544 146.843 65C147.014 64.4453 147.259 63.976 147.579 63.592C147.899 63.208 148.289 62.9147 148.747 62.712C149.217 62.5093 149.75 62.408 150.347 62.408C150.678 62.408 150.971 62.44 151.227 62.504C151.494 62.568 151.761 62.6587 152.027 62.776V58.968L154.411 58.584V70.728ZM161.267 66.536C161.267 65.768 161.166 65.224 160.963 64.904C160.771 64.584 160.435 64.424 159.955 64.424C159.806 64.424 159.651 64.4347 159.491 64.456C159.331 64.4667 159.177 64.4827 159.027 64.504V71H156.643V62.872C156.846 62.8187 157.081 62.7653 157.347 62.712C157.625 62.648 157.913 62.5947 158.211 62.552C158.521 62.4987 158.835 62.4613 159.155 62.44C159.475 62.408 159.79 62.392 160.099 62.392C160.707 62.392 161.198 62.472 161.571 62.632C161.955 62.7813 162.27 62.9627 162.515 63.176C162.857 62.9307 163.246 62.7387 163.683 62.6C164.131 62.4613 164.542 62.392 164.915 62.392C165.587 62.392 166.137 62.488 166.563 62.68C167.001 62.8613 167.347 63.1227 167.603 63.464C167.859 63.8053 168.035 64.2107 168.131 64.68C168.227 65.1493 168.275 65.672 168.275 66.248V71H165.891V66.536C165.891 65.768 165.79 65.224 165.587 64.904C165.395 64.584 165.059 64.424 164.579 64.424C164.451 64.424 164.27 64.456 164.035 64.52C163.811 64.584 163.625 64.664 163.475 64.76C163.55 65.0053 163.598 65.2667 163.619 65.544C163.641 65.8107 163.651 66.0987 163.651 66.408V71H161.267V66.536ZM172.824 71H170.44V62.584H172.824V71ZM173.048 60.152C173.048 60.5893 172.904 60.936 172.616 61.192C172.339 61.4373 172.008 61.56 171.624 61.56C171.24 61.56 170.904 61.4373 170.616 61.192C170.339 60.936 170.2 60.5893 170.2 60.152C170.2 59.7147 170.339 59.3733 170.616 59.128C170.904 58.872 171.24 58.744 171.624 58.744C172.008 58.744 172.339 58.872 172.616 59.128C172.904 59.3733 173.048 59.7147 173.048 60.152ZM175.065 62.872C175.471 62.7547 175.993 62.648 176.633 62.552C177.273 62.4453 177.945 62.392 178.649 62.392C179.364 62.392 179.956 62.488 180.425 62.68C180.905 62.8613 181.284 63.1227 181.561 63.464C181.839 63.8053 182.036 64.2107 182.153 64.68C182.271 65.1493 182.329 65.672 182.329 66.248V71H179.945V66.536C179.945 65.768 179.844 65.224 179.641 64.904C179.439 64.584 179.06 64.424 178.505 64.424C178.335 64.424 178.153 64.4347 177.961 64.456C177.769 64.4667 177.599 64.4827 177.449 64.504V71H175.065V62.872ZM195.899 68.856V71H188.491V59.912H190.987V68.856H195.899ZM205.219 66.776C205.219 67.4373 205.123 68.0453 204.931 68.6C204.739 69.144 204.461 69.6133 204.099 70.008C203.736 70.392 203.299 70.6907 202.787 70.904C202.285 71.1173 201.72 71.224 201.091 71.224C200.472 71.224 199.907 71.1173 199.395 70.904C198.893 70.6907 198.461 70.392 198.099 70.008C197.736 69.6133 197.453 69.144 197.251 68.6C197.048 68.0453 196.947 67.4373 196.947 66.776C196.947 66.1147 197.048 65.512 197.251 64.968C197.464 64.424 197.752 63.96 198.115 63.576C198.488 63.192 198.925 62.8933 199.427 62.68C199.939 62.4667 200.493 62.36 201.091 62.36C201.699 62.36 202.253 62.4667 202.755 62.68C203.267 62.8933 203.704 63.192 204.067 63.576C204.429 63.96 204.712 64.424 204.915 64.968C205.117 65.512 205.219 66.1147 205.219 66.776ZM202.787 66.776C202.787 66.04 202.637 65.464 202.339 65.048C202.051 64.6213 201.635 64.408 201.091 64.408C200.547 64.408 200.125 64.6213 199.827 65.048C199.528 65.464 199.379 66.04 199.379 66.776C199.379 67.512 199.528 68.0987 199.827 68.536C200.125 68.9627 200.547 69.176 201.091 69.176C201.635 69.176 202.051 68.9627 202.339 68.536C202.637 68.0987 202.787 67.512 202.787 66.776ZM209.097 66.52C209.097 67.8533 209.636 68.52 210.713 68.52C210.959 68.52 211.188 68.488 211.401 68.424C211.615 68.36 211.796 68.2853 211.945 68.2V64.392C211.828 64.3707 211.689 64.3547 211.529 64.344C211.369 64.3227 211.183 64.312 210.969 64.312C210.34 64.312 209.871 64.52 209.561 64.936C209.252 65.352 209.097 65.88 209.097 66.52ZM214.329 69.944C214.329 71.32 213.977 72.3387 213.273 73C212.58 73.672 211.503 74.008 210.041 74.008C209.529 74.008 209.017 73.96 208.505 73.864C207.993 73.7787 207.519 73.6613 207.081 73.512L207.497 71.512C207.871 71.6613 208.26 71.7787 208.665 71.864C209.081 71.9493 209.551 71.992 210.073 71.992C210.756 71.992 211.236 71.8427 211.513 71.544C211.801 71.2453 211.945 70.8613 211.945 70.392V70.088C211.689 70.2053 211.423 70.296 211.145 70.36C210.879 70.4133 210.585 70.44 210.265 70.44C209.103 70.44 208.212 70.0987 207.593 69.416C206.975 68.7227 206.665 67.7573 206.665 66.52C206.665 65.9013 206.761 65.3413 206.953 64.84C207.145 64.328 207.423 63.8907 207.785 63.528C208.159 63.1653 208.612 62.888 209.145 62.696C209.679 62.4933 210.281 62.392 210.953 62.392C211.241 62.392 211.535 62.408 211.833 62.44C212.143 62.4613 212.447 62.4933 212.745 62.536C213.044 62.5787 213.327 62.632 213.593 62.696C213.871 62.7493 214.116 62.808 214.329 62.872V69.944ZM218.949 71H216.565V62.584H218.949V71ZM219.173 60.152C219.173 60.5893 219.029 60.936 218.741 61.192C218.464 61.4373 218.133 61.56 217.749 61.56C217.365 61.56 217.029 61.4373 216.741 61.192C216.464 60.936 216.325 60.5893 216.325 60.152C216.325 59.7147 216.464 59.3733 216.741 59.128C217.029 58.872 217.365 58.744 217.749 58.744C218.133 58.744 218.464 58.872 218.741 59.128C219.029 59.3733 219.173 59.7147 219.173 60.152ZM221.19 62.872C221.596 62.7547 222.118 62.648 222.758 62.552C223.398 62.4453 224.07 62.392 224.774 62.392C225.489 62.392 226.081 62.488 226.55 62.68C227.03 62.8613 227.409 63.1227 227.686 63.464C227.964 63.8053 228.161 64.2107 228.278 64.68C228.396 65.1493 228.454 65.672 228.454 66.248V71H226.07V66.536C226.07 65.768 225.969 65.224 225.766 64.904C225.564 64.584 225.185 64.424 224.63 64.424C224.46 64.424 224.278 64.4347 224.086 64.456C223.894 64.4667 223.724 64.4827 223.574 64.504V71H221.19V62.872Z" fill="#8A5FFF"/>
<defs>
<linearGradient id="paint0_linear_65_14" x1="35" y1="1.02945e-06" x2="35" y2="80.5" gradientUnits="userSpaceOnUse">
<stop stop-color="#7550D8"/>
<stop offset="1" stop-color="#451EAE"/>
</linearGradient>
<linearGradient id="paint1_linear_65_14" x1="182.5" y1="17" x2="182.5" y2="51" gradientUnits="userSpaceOnUse">
<stop stop-color="#7550D8"/>
<stop offset="1" stop-color="#3D04D6" stop-opacity="0.75"/>
</linearGradient>
</defs>
</svg>
