<svg width="183" height="180" viewBox="0 0 183 180" fill="none" xmlns="http://www.w3.org/2000/svg">
<path d="M105.193 12.6357L96.1255 3.56844C92.2862 -0.270861 86.078 -0.270861 82.2795 3.56844L2.87947 82.9277C-0.959829 86.767 -0.959829 92.9752 2.87947 96.7737L82.2795 176.174C86.1188 180.013 92.3271 180.013 96.1255 176.174L105.193 167.106C109.073 163.226 108.991 156.896 105.029 153.097L55.8129 106.209H173.198C178.63 106.209 183 101.838 183 96.4061V83.3361C183 77.9039 178.63 73.5336 173.198 73.5336H55.8129L105.029 26.6451C109.032 22.8466 109.114 16.5159 105.193 12.6357Z" fill="black"/>
</svg>
