<svg width="75" height="75" viewBox="0 0 75 75" fill="none" xmlns="http://www.w3.org/2000/svg">
<path d="M37.5956 0.813965C17.1971 0.813965 0.669922 17.3412 0.669922 37.7396C0.669922 58.1381 17.1971 74.6653 37.5956 74.6653C57.9941 74.6653 74.5213 58.1381 74.5213 37.7396C74.5213 17.3412 57.9941 0.813965 37.5956 0.813965ZM55.7011 47.4326C56.4009 48.1324 56.4009 49.264 55.7011 49.9638L49.8049 55.8451C49.1051 56.5449 47.9735 56.5449 47.2737 55.8451L37.5956 46.0777L27.9026 55.8451C27.2028 56.5449 26.0712 56.5449 25.3714 55.8451L19.4901 49.9489C18.7903 49.2491 18.7903 48.1175 19.4901 47.4177L29.2575 37.7396L19.4901 28.0467C18.7903 27.3469 18.7903 26.2153 19.4901 25.5155L25.3863 19.6193C26.0861 18.9195 27.2177 18.9195 27.9175 19.6193L37.5956 29.4016L47.2886 19.6341C47.9884 18.9343 49.12 18.9343 49.8198 19.6341L55.716 25.5303C56.4158 26.2301 56.4158 27.3617 55.716 28.0615L45.9337 37.7396L55.7011 47.4326Z" fill="white"/>
</svg>
