<svg width="38" height="38" viewBox="0 0 38 38" fill="none" xmlns="http://www.w3.org/2000/svg">
<g opacity="0.5">
<path d="M34.8337 19C34.8337 10.26 27.7403 3.16663 19.0003 3.16663C10.2603 3.16663 3.16699 10.26 3.16699 19C3.16699 27.74 10.2603 34.8333 19.0003 34.8333" stroke="black" stroke-width="1.5" stroke-linecap="round" stroke-linejoin="round"/>
<path d="M12.6668 4.75H14.2502C11.1627 13.9991 11.1627 24.0009 14.2502 33.25H12.6668M23.7502 4.75C25.286 9.37333 26.0618 14.1867 26.0618 19" stroke="black" stroke-width="1.5" stroke-linecap="round" stroke-linejoin="round"/>
<path d="M4.75 25.3334V23.75C9.37333 25.2859 14.1867 26.0617 19 26.0617M4.75 14.25C13.9991 11.1626 24.0009 11.1626 33.25 14.25M34.8333 34.8334L33.25 33.25M28.8167 33.8834C30.1604 33.8834 31.4492 33.3496 32.3993 32.3994C33.3495 31.4492 33.8833 30.1605 33.8833 28.8167C33.8833 27.4729 33.3495 26.1842 32.3993 25.234C31.4492 24.2838 30.1604 23.75 28.8167 23.75C27.4729 23.75 26.1842 24.2838 25.234 25.234C24.2838 26.1842 23.75 27.4729 23.75 28.8167C23.75 30.1605 24.2838 31.4492 25.234 32.3994C26.1842 33.3496 27.4729 33.8834 28.8167 33.8834Z" stroke="black" stroke-width="1.5" stroke-linecap="round" stroke-linejoin="round"/>
</g>
</svg>
