<svg width="335" height="335" viewBox="0 0 335 335" fill="none" xmlns="http://www.w3.org/2000/svg">
<path d="M167.104 0C74.8215 0 0 74.8485 0 167.104C0 259.414 74.8215 334.208 167.104 334.208C259.387 334.208 334.208 259.414 334.208 167.104C334.208 74.8485 259.387 0 167.104 0ZM167.104 74.1187C182.734 74.1187 195.404 86.789 195.404 102.419C195.404 118.048 182.734 130.718 167.104 130.718C151.474 130.718 138.804 118.048 138.804 102.419C138.804 86.789 151.474 74.1187 167.104 74.1187ZM204.837 245.266C204.837 249.731 201.217 253.351 196.752 253.351H137.457C132.991 253.351 129.371 249.731 129.371 245.266V229.094C129.371 224.629 132.991 221.009 137.457 221.009H145.542V177.885H137.457C132.991 177.885 129.371 174.265 129.371 169.799V153.628C129.371 149.163 132.991 145.542 137.457 145.542H180.58C185.045 145.542 188.666 149.163 188.666 153.628V221.009H196.752C201.217 221.009 204.837 224.629 204.837 229.094V245.266Z" fill="black"/>
</svg>
