<svg width="80" height="81" viewBox="0 0 80 81" fill="none" xmlns="http://www.w3.org/2000/svg">
<path d="M40.0001 11.9518C39.6001 11.9518 39.2001 11.912 38.8401 11.8322C38.4401 11.7525 38.0801 11.6329 37.7201 11.5133C37.3601 11.3539 37.0001 11.1545 36.6801 10.9552C35.8533 10.411 35.1748 9.6709 34.7054 8.80124C34.236 7.93157 33.9903 6.95946 33.9903 5.97193C33.9903 4.98441 34.236 4.01229 34.7054 3.14263C35.1748 2.27296 35.8533 1.53289 36.6801 0.988675C37.0001 0.789345 37.3601 0.590014 37.7201 0.470416C38.0801 0.310952 38.4401 0.191354 38.8401 0.111622C39.6605 -0.0486643 40.5054 -0.0362014 41.3207 0.14821C42.1359 0.332622 42.9035 0.684907 43.574 1.18245C44.2446 1.67999 44.8034 2.31178 45.2145 3.03728C45.6256 3.76277 45.8799 4.56593 45.9611 5.39518C46.0424 6.22443 45.9487 7.06145 45.6862 7.85249C45.4237 8.64354 44.9981 9.37114 44.4368 9.98856C43.8754 10.606 43.1908 11.0996 42.4267 11.4377C41.6626 11.7758 40.8361 11.9509 40.0001 11.9518V11.9518ZM40.0001 29.8916C39.6001 29.8916 39.2001 29.8517 38.8401 29.772C38.4401 29.6922 38.0801 29.5726 37.7201 29.453C37.3601 29.2936 37.0001 29.0942 36.6801 28.8949C36.3601 28.6557 36.0401 28.4165 35.7601 28.1375C35.1311 27.5118 34.6495 26.7546 34.3501 25.9207C34.0507 25.0867 33.9411 24.1969 34.0292 23.3155C34.1172 22.4342 34.4007 21.5833 34.8592 20.8246C35.3177 20.0658 35.9397 19.4182 36.6801 18.9284C37.0001 18.7291 37.3601 18.5297 37.7201 18.4101C38.4387 18.0954 39.2151 17.933 40.0001 17.933C40.785 17.933 41.5614 18.0954 42.2801 18.4101C42.6401 18.5297 43.0001 18.7291 43.3201 18.9284C44.0605 19.4182 44.6825 20.0658 45.141 20.8246C45.5994 21.5833 45.883 22.4342 45.971 23.3155C46.059 24.1969 45.9494 25.0867 45.6501 25.9207C45.3507 26.7546 44.8691 27.5118 44.2401 28.1375C43.9601 28.4165 43.6401 28.6557 43.3201 28.8949C43.0001 29.0942 42.6401 29.2936 42.2801 29.453C41.9201 29.5726 41.5601 29.6922 41.1601 29.772C40.8001 29.8517 40.4001 29.8916 40.0001 29.8916V29.8916ZM40.0001 45.838C39.6001 45.838 39.2001 45.7981 38.8401 45.7184C38.4401 45.6387 38.0801 45.5191 37.7201 45.3995C37.3601 45.24 37.0001 45.0407 36.6801 44.8413C36.3601 44.6021 36.0401 44.363 35.7601 44.0839C34.9111 43.2521 34.3387 42.1806 34.1201 41.0142C33.9293 40.0519 33.9791 39.0575 34.2651 38.1189C34.5511 37.1803 35.0646 36.3263 35.7601 35.6323C36.0401 35.3532 36.3601 35.114 36.6801 34.8748C37.0001 34.6755 37.3601 34.4762 37.7201 34.3167C38.0801 34.1971 38.4401 34.0775 38.8401 33.9978C39.8054 33.8086 40.8026 33.8591 41.7436 34.1448C42.6847 34.4305 43.5408 34.9425 44.2365 35.6358C44.9321 36.3292 45.4459 37.1824 45.7325 38.1204C46.0191 39.0583 46.0698 40.0521 45.88 41.0142C45.8 41.4129 45.68 41.7717 45.52 42.1305C45.2526 42.8724 44.8142 43.5415 44.2401 44.0839C43.9601 44.363 43.6401 44.6021 43.3201 44.8413C43.0001 45.0407 42.6401 45.24 42.2801 45.3995C41.9201 45.5191 41.5601 45.6387 41.1601 45.7184C40.8001 45.7981 40.4001 45.838 40.0001 45.838V45.838ZM40.0001 59.7951C38.9601 59.7951 37.9201 59.3566 37.1601 58.639C36.4401 57.8815 36.0001 56.845 36.0001 55.8085C36.0001 54.772 36.4401 53.7355 37.1601 52.978C38.0801 52.0611 39.4801 51.6624 40.7601 51.9016C41.0401 51.9415 41.2801 52.0212 41.5201 52.1408C41.7601 52.2206 42.0001 52.3401 42.2001 52.4996C42.4401 52.6591 42.6401 52.8185 42.8401 52.978C43.5601 53.7355 44.0001 54.772 44.0001 55.8085C44.0001 56.845 43.5601 57.8815 42.8401 58.639C42.6401 58.7985 42.4401 58.9579 42.2001 59.1174C42.0001 59.2768 41.7601 59.3964 41.5201 59.4762C41.2801 59.5958 41.0401 59.6755 40.7601 59.7154C40.5201 59.7552 40.2401 59.7951 40.0001 59.7951ZM40.0001 72.7476C39.2069 72.736 38.4484 72.4221 37.8801 71.8705C37.5957 71.6049 37.3767 71.2775 37.2401 70.9138C36.9909 70.3214 36.9397 69.6649 37.0941 69.0413C37.2485 68.4177 37.6003 67.8603 38.0974 67.4515C38.5944 67.0427 39.2104 66.8043 39.854 66.7716C40.4976 66.7389 41.1346 66.9136 41.6708 67.2698C42.207 67.6261 42.6139 68.145 42.8311 68.7497C43.0484 69.3544 43.0645 70.0127 42.877 70.6273C42.6896 71.2418 42.3086 71.7798 41.7904 72.1617C41.2723 72.5436 40.6445 72.749 40.0001 72.7476V72.7476ZM40.0001 80.9999C39.7378 81.0031 39.4777 80.9515 39.2366 80.8485C38.9955 80.7455 38.7787 80.5934 38.6001 80.4019C38.4079 80.2239 38.2553 80.0078 38.152 79.7675C38.0486 79.5272 37.9969 79.268 38.0001 79.0066C38.0323 78.4997 38.257 78.0241 38.6285 77.6765C39.0001 77.3289 39.4905 77.1354 40.0001 77.1354C40.5097 77.1354 41.0001 77.3289 41.3716 77.6765C41.7432 78.0241 41.9679 78.4997 42.0001 79.0066C42.0001 79.5248 41.8001 80.0431 41.4001 80.4019C41.2215 80.5934 41.0047 80.7455 40.7636 80.8485C40.5225 80.9515 40.2624 81.0031 40.0001 80.9999V80.9999ZM6.00034 29.8916C4.81357 29.8924 3.65324 29.5423 2.66628 28.8854C1.67933 28.2286 0.910135 27.2946 0.456121 26.2018C0.00210698 25.109 -0.116309 23.9065 0.115868 22.7465C0.348045 21.5866 0.920371 20.5214 1.76037 19.6859C3.96035 17.4534 8.00032 17.4534 10.2403 19.6859C10.8693 20.3115 11.3509 21.0687 11.6503 21.9027C11.9497 22.7366 12.0593 23.6265 11.9713 24.5078C11.8832 25.3892 11.5997 26.24 11.1412 26.9987C10.6827 27.7575 10.0608 28.4052 9.32031 28.8949C9.00032 29.0942 8.64032 29.2936 8.28032 29.4132C7.56403 29.7352 6.78612 29.8985 6.00034 29.8916V29.8916ZM73.9998 29.8916C72.4398 29.8916 70.8799 29.2537 69.7599 28.1375C68.6399 27.0212 67.9999 25.4664 67.9999 23.9117C67.9999 23.513 68.0399 23.1143 68.1199 22.7555C68.1999 22.3569 68.3199 21.9981 68.4399 21.6393C68.5999 21.2805 68.7999 20.9217 68.9999 20.6028C69.2399 20.2839 69.4799 19.9649 69.7599 19.6859C70.0399 19.4068 70.3599 19.1676 70.6799 18.9284C70.9999 18.7291 71.3599 18.5297 71.7198 18.4101C72.4385 18.0954 73.2149 17.933 73.9998 17.933C74.7848 17.933 75.5612 18.0954 76.2798 18.4101C76.6398 18.5297 76.9998 18.7291 77.3198 18.9284C77.6398 19.1676 77.9598 19.4068 78.2398 19.6859C78.5198 19.9649 78.7598 20.2839 78.9998 20.6028C79.1998 20.9217 79.3998 21.2805 79.5198 21.6393C79.8429 22.3532 80.0067 23.1285 79.9998 23.9117C80.0005 24.8982 79.7562 25.8696 79.2885 26.7392C78.8209 27.6087 78.1445 28.3493 77.3198 28.8949C76.9998 29.0942 76.6398 29.2936 76.2798 29.453C75.9198 29.5726 75.5598 29.6922 75.1598 29.772C74.7598 29.8517 74.3998 29.8916 73.9998 29.8916V29.8916ZM73.9998 43.8407C73.7598 43.8407 73.4798 43.8008 73.2398 43.761C72.9749 43.7238 72.7181 43.643 72.4798 43.5218C72.2249 43.4346 71.9828 43.314 71.7598 43.163C71.5599 43.0434 71.3599 42.8441 71.1599 42.6846C70.9999 42.4853 70.7999 42.2859 70.6799 42.0866C70.5283 41.8644 70.4073 41.6231 70.3199 41.369C70.2043 41.1431 70.1234 40.9012 70.0799 40.6514C70.0399 40.3724 69.9999 40.1332 69.9999 39.8541C69.9999 38.8176 70.4399 37.7811 71.1599 37.0236L71.7598 36.5452C71.9998 36.3858 72.2398 36.2662 72.4798 36.1864C72.7198 36.0668 72.9598 35.9871 73.2398 35.9472C73.7198 35.8276 74.2398 35.8276 74.7598 35.9472C75.0398 35.9871 75.2798 36.0668 75.5198 36.1864C75.7598 36.2662 75.9998 36.3858 76.1998 36.5452C76.4398 36.7047 76.6398 36.8641 76.8398 37.0236C77.5598 37.7811 77.9998 38.8176 77.9998 39.8541C77.9998 40.1332 77.9598 40.3724 77.9198 40.6514C77.8798 40.8906 77.7998 41.1298 77.6798 41.369C77.5998 41.6082 77.4798 41.8474 77.3198 42.0866L76.8398 42.6846C76.6398 42.8441 76.4398 43.0434 76.1998 43.163C75.9998 43.3224 75.7598 43.442 75.5198 43.5218C75.2798 43.6414 75.0398 43.7211 74.7598 43.761C74.5198 43.8008 74.2398 43.8407 73.9998 43.8407V43.8407ZM6.00034 43.8407C4.96035 43.8407 3.92035 43.4022 3.16036 42.6846C2.44037 41.9271 2.00037 40.8906 2.00037 39.8541C2.00037 38.8176 2.44037 37.7811 3.16036 37.0236C4.28035 35.9074 6.04034 35.5486 7.52033 36.1864C8.04032 36.3858 8.44032 36.6648 8.84032 37.0236C9.56031 37.7811 10.0003 38.8176 10.0003 39.8541C10.0003 40.8906 9.56031 41.9271 8.84032 42.6846C8.08032 43.4022 7.04033 43.8407 6.00034 43.8407V43.8407ZM73.9998 54.7999C73.5934 54.8208 73.1869 54.7591 72.8051 54.6185C72.4233 54.4779 72.0743 54.2614 71.7791 53.982C71.484 53.7027 71.249 53.3664 71.0884 52.9937C70.9278 52.621 70.845 52.2196 70.845 51.8139C70.845 51.4083 70.9278 51.0069 71.0884 50.6341C71.249 50.2614 71.484 49.9251 71.7791 49.6458C72.0743 49.3665 72.4233 49.1499 72.8051 49.0093C73.1869 48.8687 73.5934 48.807 73.9998 48.828C74.7676 48.8675 75.4909 49.1994 76.0203 49.755C76.5498 50.3106 76.8449 51.0477 76.8449 51.8139C76.8449 52.5802 76.5498 53.3172 76.0203 53.8728C75.4909 54.4285 74.7676 54.7603 73.9998 54.7999V54.7999ZM6.00034 54.8158C5.50646 54.8147 5.02049 54.6921 4.58556 54.4589C4.15064 54.2257 3.78021 53.8891 3.50717 53.4789C3.23413 53.0687 3.06691 52.5977 3.02037 52.1077C2.97382 51.6176 3.04939 51.1237 3.24036 50.6698C3.36036 50.311 3.60036 49.992 3.88035 49.713C4.96035 48.5967 7.00033 48.5967 8.12032 49.713C8.67376 50.2793 8.98864 51.0354 9.00032 51.8259C8.98864 52.6164 8.67376 53.3724 8.12032 53.9388C7.55826 54.4997 6.79571 54.8151 6.00034 54.8158V54.8158ZM73.9998 64.7744C73.7198 64.7744 73.4798 64.7345 73.2398 64.6149C72.9898 64.5308 72.7681 64.379 72.5998 64.1764C72.4077 63.9984 72.255 63.7823 72.1517 63.542C72.0484 63.3017 71.9966 63.0425 71.9998 62.7811C72.032 62.2742 72.2567 61.7986 72.6283 61.451C72.9998 61.1034 73.4902 60.9099 73.9998 60.9099C74.5094 60.9099 74.9999 61.1034 75.3714 61.451C75.7429 61.7986 75.9676 62.2742 75.9998 62.7811C75.9998 63.2993 75.7998 63.8176 75.3998 64.1764C75.2212 64.3679 75.0044 64.52 74.7633 64.623C74.5222 64.726 74.2621 64.7776 73.9998 64.7744V64.7744ZM6.00034 64.7744C5.48034 64.7744 4.96035 64.575 4.60035 64.1764C4.4082 63.9984 4.25555 63.7823 4.15222 63.542C4.04889 63.3017 3.99716 63.0425 4.00035 62.7811C4.03253 62.2742 4.25725 61.7986 4.62878 61.451C5.00031 61.1034 5.49076 60.9099 6.00034 60.9099C6.50992 60.9099 7.00036 61.1034 7.3719 61.451C7.74343 61.7986 7.96814 62.2742 8.00032 62.7811C8.00032 63.2993 7.80033 63.8176 7.40033 64.1764C7.04033 64.575 6.52034 64.7744 6.00034 64.7744ZM23.0002 20.9217C22.2144 20.9286 21.4365 20.7654 20.7202 20.4433C20.3202 20.3237 20.0002 20.1244 19.6802 19.9251C18.8597 19.3751 18.1866 18.6336 17.7195 17.765C17.2524 16.8965 17.0055 15.9272 17.0003 14.9418C17.0003 13.387 17.6403 11.8322 18.7602 10.716C21.0002 8.4835 25.0002 8.4835 27.2402 10.716C27.8692 11.3417 28.3508 12.0989 28.6502 12.9328C28.9496 13.7667 29.0592 14.6566 28.9711 15.5379C28.8831 16.4193 28.5996 17.2701 28.1411 18.0289C27.6826 18.7876 27.0606 19.4353 26.3202 19.9251C26.0002 20.1244 25.6402 20.3237 25.2802 20.4433C24.5639 20.7654 23.786 20.9286 23.0002 20.9217V20.9217ZM57 20.9217C56.2142 20.9285 55.4363 20.7653 54.72 20.4433C54.36 20.3237 54 20.1244 53.68 19.9251C53.3558 19.6945 53.0483 19.4414 52.76 19.1676C52.48 18.8885 52.24 18.5696 52 18.2507C51.8 17.9318 51.6 17.573 51.44 17.2142C51.32 16.8554 51.2 16.4966 51.12 16.0979C51.04 15.7391 51 15.3405 51 14.9418C51.0052 13.9564 51.2521 12.9871 51.7193 12.1186C52.1864 11.25 52.8595 10.5085 53.68 9.95854C54 9.75921 54.36 9.55988 54.72 9.44028C55.4386 9.12558 56.215 8.96309 57 8.96309C57.7849 8.96309 58.5613 9.12558 59.2799 9.44028C59.6399 9.55988 59.9999 9.75921 60.3199 9.95854C61.1404 10.5085 61.8136 11.25 62.2807 12.1186C62.7478 12.9871 62.9947 13.9564 62.9999 14.9418C62.9999 15.3405 62.9599 15.7391 62.8799 16.0979C62.7999 16.4966 62.6799 16.8554 62.5599 17.2142C62.3999 17.573 62.1999 17.9318 61.9999 18.2507C61.7599 18.5696 61.5199 18.8885 61.2399 19.1676C60.9599 19.4467 60.6399 19.6859 60.3199 19.9251C59.9999 20.1244 59.6399 20.3237 59.2799 20.4433C58.5636 20.7653 57.7857 20.9285 57 20.9217ZM23.0002 37.8648C22.6002 37.8648 22.2002 37.8249 21.8402 37.7452C21.4402 37.6655 21.0802 37.5459 20.7202 37.4263C19.9835 37.126 19.3164 36.6783 18.7602 36.1107C18.2034 35.5558 17.7617 34.897 17.4603 34.1719C17.159 33.4468 17.0039 32.6697 17.0039 31.8849C17.0039 31.1001 17.159 30.3229 17.4603 29.5979C17.7617 28.8728 18.2034 28.214 18.7602 27.6591C21.0002 25.4266 25.0002 25.4266 27.2402 27.6591C28.0802 28.4946 28.6525 29.5598 28.8847 30.7197C29.1169 31.8797 28.9984 33.0822 28.5444 34.175C28.0904 35.2679 27.3212 36.2018 26.3343 36.8587C25.3473 37.5155 24.187 37.8656 23.0002 37.8648V37.8648ZM57 37.8648C56.2142 37.8716 55.4363 37.7083 54.72 37.3864C54.36 37.2668 54 37.0675 53.68 36.8681C53.36 36.6289 53.04 36.3897 52.76 36.1107C52.48 35.8316 52.24 35.5127 52 35.1938C51.8 34.8748 51.6 34.516 51.44 34.1572C51.32 33.7984 51.2 33.4397 51.12 33.041C51.04 32.6822 51 32.2835 51 31.8849C51 30.3301 51.64 28.7753 52.76 27.6591C53.04 27.38 53.36 27.1408 53.68 26.9016C54 26.7023 54.36 26.503 54.72 26.3834C55.4386 26.0687 56.215 25.9062 57 25.9062C57.7849 25.9062 58.5613 26.0687 59.2799 26.3834C59.6399 26.503 59.9999 26.7023 60.3199 26.9016C61.1404 27.4515 61.8136 28.1931 62.2807 29.0616C62.7478 29.9302 62.9947 30.8994 62.9999 31.8849C62.9999 32.2835 62.9599 32.6822 62.8799 33.041C62.7999 33.4397 62.6799 33.7984 62.5599 34.1572C62.3999 34.516 62.1999 34.8748 61.9999 35.1938C61.7599 35.5127 61.5199 35.8316 61.2399 36.1107C60.9599 36.3897 60.6399 36.6289 60.3199 36.8681C59.9999 37.0675 59.6399 37.2668 59.2799 37.3864C58.5636 37.7083 57.7857 37.8716 57 37.8648ZM23.0002 51.8179C22.4802 51.8179 21.9602 51.6983 21.4802 51.499C20.9858 51.316 20.5359 51.0307 20.1602 50.6618C19.8002 50.2631 19.5202 49.8246 19.3202 49.3462C19.1148 48.8671 19.006 48.3523 19.0002 47.8313C19.0002 46.7948 19.4402 45.7583 20.1602 45.0008C21.6402 43.5258 24.3602 43.5258 25.8402 45.0008C26.5602 45.7583 27.0002 46.7948 27.0002 47.8313C27.0002 48.3496 26.8802 48.8678 26.6802 49.3462C26.4802 49.8246 26.2002 50.2631 25.8402 50.6618C25.0802 51.3794 24.0402 51.8179 23.0002 51.8179V51.8179ZM57 51.8179C55.96 51.8179 54.92 51.3794 54.16 50.6618C53.44 49.9043 53 48.8678 53 47.8313C53 46.7948 53.44 45.7583 54.16 45.0008C55.64 43.5258 58.3199 43.5258 59.8399 45.0008C60.5599 45.7583 60.9999 46.7948 60.9999 47.8313C60.9999 48.1104 60.9599 48.3496 60.9199 48.6286C60.8799 48.8678 60.7999 49.107 60.6799 49.3462C60.5999 49.5854 60.4799 49.8246 60.3199 50.0239C60.1599 50.2631 59.9999 50.4625 59.8399 50.6618C59.0799 51.3794 58.04 51.8179 57 51.8179V51.8179ZM23.0002 63.7777C22.5973 63.7924 22.1956 63.726 21.819 63.5824C21.4424 63.4389 21.0987 63.2211 20.8085 62.9422C20.5182 62.6633 20.2873 62.329 20.1297 61.9591C19.972 61.5893 19.8907 61.1916 19.8907 60.7898C19.8907 60.3879 19.972 59.9902 20.1297 59.6204C20.2873 59.2506 20.5182 58.9162 20.8085 58.6373C21.0987 58.3584 21.4424 58.1407 21.819 57.9971C22.1956 57.8536 22.5973 57.7871 23.0002 57.8018C23.7764 57.8301 24.5113 58.1572 25.0504 58.7145C25.5894 59.2718 25.8907 60.0157 25.8907 60.7898C25.8907 61.5638 25.5894 62.3078 25.0504 62.865C24.5113 63.4223 23.7764 63.7495 23.0002 63.7777V63.7777ZM57 63.7777C56.2068 63.7661 55.4482 63.4523 54.88 62.9007C54.5956 62.6351 54.3766 62.3077 54.24 61.9439C54.0784 61.5797 53.9949 61.1859 53.9949 60.7878C53.9949 60.3896 54.0784 59.9958 54.24 59.6317C54.4 59.2729 54.6 58.9539 54.88 58.6749C55.16 58.3958 55.48 58.1965 55.84 58.037C56.2062 57.879 56.6009 57.7975 57 57.7975C57.399 57.7975 57.7938 57.879 58.16 58.037C58.52 58.1965 58.8399 58.3958 59.1199 58.6749C59.6734 59.2412 59.9883 59.9973 59.9999 60.7878C59.9883 61.5783 59.6734 62.3343 59.1199 62.9007C58.5579 63.4616 57.7953 63.777 57 63.7777ZM23.0002 72.7476C22.4802 72.7476 21.9602 72.5483 21.6002 72.1496C21.4081 71.9716 21.2554 71.7555 21.1521 71.5152C21.0488 71.2749 20.997 71.0157 21.0002 70.7543C21.0324 70.2474 21.2571 69.7718 21.6287 69.4242C22.0002 69.0766 22.4906 68.8831 23.0002 68.8831C23.5098 68.8831 24.0002 69.0766 24.3718 69.4242C24.7433 69.7718 24.968 70.2474 25.0002 70.7543C25.0002 71.2725 24.8002 71.7908 24.4002 72.1496C24.0402 72.5483 23.5202 72.7476 23.0002 72.7476ZM57 72.7476C56.72 72.7476 56.48 72.7077 56.24 72.5881C55.9899 72.5041 55.7683 72.3522 55.6 72.1496C55.3967 71.9819 55.2443 71.761 55.16 71.5117C55.046 71.2759 54.9911 71.016 55 70.7543C55.0322 70.2474 55.2569 69.7718 55.6284 69.4242C55.9999 69.0766 56.4904 68.8831 57 68.8831C57.5095 68.8831 58 69.0766 58.3715 69.4242C58.743 69.7718 58.9678 70.2474 58.9999 70.7543C58.9999 71.0333 58.9599 71.2725 58.8399 71.5117C58.7599 71.7509 58.6 71.9901 58.4 72.1496C58.2214 72.3411 58.0046 72.4932 57.7634 72.5962C57.5223 72.6992 57.2623 72.7508 57 72.7476V72.7476Z" fill="url(#paint0_linear_713_9)"/>
<defs>
<linearGradient id="paint0_linear_713_9" x1="40" y1="-9" x2="40" y2="81" gradientUnits="userSpaceOnUse">
<stop stop-color="#7B5EE2"/>
<stop offset="1" stop-color="#5E30DA"/>
</linearGradient>
</defs>
</svg>
