<svg width="60" height="61" viewBox="0 0 60 61" fill="none" xmlns="http://www.w3.org/2000/svg">
<path d="M30.0001 9.00077C29.7001 9.00077 29.4001 8.97075 29.1301 8.9107C28.8301 8.85066 28.5601 8.76059 28.2901 8.67052C28.0201 8.55043 27.7501 8.40032 27.5101 8.25021C26.89 7.84036 26.3811 7.28303 26.029 6.62809C25.677 5.97316 25.4927 5.24107 25.4927 4.49738C25.4927 3.75369 25.677 3.0216 26.029 2.36667C26.3811 1.71174 26.89 1.1544 27.5101 0.744558C27.7501 0.594445 28.0201 0.444332 28.2901 0.354264C28.5601 0.234174 28.8301 0.144106 29.1301 0.0840606C29.7454 -0.0366484 30.3791 -0.0272627 30.9905 0.111615C31.6019 0.250493 32.1776 0.515794 32.6805 0.890485C33.1835 1.26517 33.6025 1.74097 33.9109 2.28733C34.2192 2.83369 34.4099 3.43854 34.4709 4.06303C34.5318 4.68753 34.4616 5.31788 34.2647 5.91361C34.0678 6.50933 33.7486 7.05728 33.3276 7.52225C32.9066 7.98722 32.3931 8.35896 31.82 8.61358C31.247 8.8682 30.6271 9.00009 30.0001 9.00077V9.00077ZM30.0001 22.5109C29.7001 22.5109 29.4001 22.4809 29.1301 22.4209C28.8301 22.3608 28.5601 22.2708 28.2901 22.1807C28.0201 22.0606 27.7501 21.9105 27.5101 21.7604C27.2701 21.5802 27.0301 21.4001 26.8201 21.1899C26.3483 20.7188 25.9871 20.1485 25.7626 19.5205C25.5381 18.8925 25.4558 18.2223 25.5219 17.5586C25.5879 16.8949 25.8006 16.2541 26.1444 15.6827C26.4883 15.1113 26.9547 14.6236 27.5101 14.2547C27.7501 14.1046 28.0201 13.9545 28.2901 13.8644C28.8291 13.6274 29.4114 13.5051 30.0001 13.5051C30.5888 13.5051 31.1711 13.6274 31.7101 13.8644C31.98 13.9545 32.25 14.1046 32.49 14.2547C33.0454 14.6236 33.5119 15.1113 33.8557 15.6827C34.1996 16.2541 34.4122 16.8949 34.4783 17.5586C34.5443 18.2223 34.4621 18.8925 34.2375 19.5205C34.013 20.1485 33.6518 20.7188 33.18 21.1899C32.97 21.4001 32.73 21.5802 32.49 21.7604C32.25 21.9105 31.98 22.0606 31.7101 22.1807C31.4401 22.2708 31.1701 22.3608 30.8701 22.4209C30.6001 22.4809 30.3001 22.5109 30.0001 22.5109V22.5109ZM30.0001 34.52C29.7001 34.52 29.4001 34.4899 29.1301 34.4299C28.8301 34.3699 28.5601 34.2798 28.2901 34.1897C28.0201 34.0696 27.7501 33.9195 27.5101 33.7694C27.2701 33.5893 27.0301 33.4091 26.8201 33.199C26.1833 32.5725 25.754 31.7656 25.5901 30.8872C25.447 30.1625 25.4843 29.4137 25.6988 28.7068C25.9133 28 26.2984 27.3568 26.8201 26.8342C27.0301 26.624 27.2701 26.4439 27.5101 26.2638C27.7501 26.1136 28.0201 25.9635 28.2901 25.8434C28.5601 25.7534 28.8301 25.6633 29.1301 25.6033C29.854 25.4608 30.6019 25.4989 31.3077 25.714C32.0136 25.9291 32.6556 26.3148 33.1774 26.8369C33.6991 27.359 34.0844 28.0016 34.2994 28.7079C34.5144 29.4143 34.5524 30.1627 34.41 30.8872C34.35 31.1875 34.26 31.4577 34.14 31.7279C33.9394 32.2866 33.6106 32.7905 33.18 33.199C32.97 33.4091 32.73 33.5893 32.49 33.7694C32.25 33.9195 31.98 34.0696 31.7101 34.1897C31.4401 34.2798 31.1701 34.3699 30.8701 34.4299C30.6001 34.4899 30.3001 34.52 30.0001 34.52V34.52ZM30.0001 45.0309C29.2201 45.0309 28.4401 44.7006 27.8701 44.1602C27.3301 43.5898 27.0001 42.8092 27.0001 42.0286C27.0001 41.248 27.3301 40.4674 27.8701 39.897C28.5601 39.2065 29.6101 38.9063 30.5701 39.0864C30.7801 39.1164 30.9601 39.1765 31.1401 39.2665C31.3201 39.3266 31.5001 39.4167 31.6501 39.5367C31.8301 39.6568 31.9801 39.7769 32.13 39.897C32.67 40.4674 33 41.248 33 42.0286C33 42.8092 32.67 43.5898 32.13 44.1602C31.9801 44.2803 31.8301 44.4004 31.6501 44.5205C31.5001 44.6406 31.3201 44.7307 31.1401 44.7907C30.9601 44.8808 30.7801 44.9408 30.5701 44.9708C30.3901 45.0009 30.1801 45.0309 30.0001 45.0309ZM30.0001 54.7852C29.4052 54.7765 28.8363 54.5401 28.4101 54.1247C28.1968 53.9247 28.0325 53.6781 27.9301 53.4042C27.7432 52.9581 27.7048 52.4637 27.8206 51.9941C27.9364 51.5244 28.2002 51.1046 28.573 50.7968C28.9458 50.4889 29.4078 50.3094 29.8905 50.2848C30.3732 50.2601 30.851 50.3917 31.2531 50.66C31.6553 50.9283 31.9604 51.3191 32.1233 51.7745C32.2863 52.2299 32.2984 52.7256 32.1578 53.1884C32.0172 53.6512 31.7315 54.0564 31.3428 54.344C30.9542 54.6316 30.4834 54.7863 30.0001 54.7852V54.7852ZM30.0001 60.9999C29.8033 61.0023 29.6083 60.9635 29.4275 60.8859C29.2466 60.8084 29.084 60.6938 28.9501 60.5496C28.806 60.4155 28.6915 60.2528 28.614 60.0718C28.5365 59.8908 28.4977 59.6956 28.5001 59.4988C28.5242 59.1171 28.6927 58.7589 28.9714 58.4971C29.25 58.2353 29.6179 58.0896 30.0001 58.0896C30.3823 58.0896 30.7501 58.2353 31.0287 58.4971C31.3074 58.7589 31.4759 59.1171 31.5001 59.4988C31.5001 59.8891 31.3501 60.2794 31.0501 60.5496C30.9161 60.6938 30.7535 60.8084 30.5727 60.8859C30.3918 60.9635 30.1968 61.0023 30.0001 60.9999V60.9999ZM4.50025 22.5109C3.61018 22.5116 2.73993 22.2479 1.99971 21.7532C1.25949 21.2586 0.682602 20.5552 0.342091 19.7322C0.00158023 18.9092 -0.0872316 18.0036 0.086901 17.1301C0.261034 16.2566 0.690279 15.4544 1.32028 14.8252C2.97027 13.1439 6.00024 13.1439 7.68023 14.8252C8.152 15.2963 8.51321 15.8666 8.73773 16.4946C8.96226 17.1226 9.04448 17.7928 8.97844 18.4565C8.9124 19.1202 8.69976 19.761 8.35591 20.3324C8.01205 20.9038 7.54558 21.3915 6.99024 21.7604C6.75024 21.9105 6.48024 22.0606 6.21024 22.1507C5.67302 22.3932 5.08959 22.5161 4.50025 22.5109V22.5109ZM55.4999 22.5109C54.3299 22.5109 53.1599 22.0306 52.3199 21.1899C51.4799 20.3493 50.9999 19.1784 50.9999 18.0075C50.9999 17.7073 51.0299 17.4071 51.0899 17.1369C51.1499 16.8367 51.2399 16.5665 51.3299 16.2963C51.4499 16.0261 51.5999 15.7559 51.7499 15.5157C51.9299 15.2755 52.1099 15.0353 52.3199 14.8252C52.5299 14.615 52.7699 14.4349 53.0099 14.2547C53.2499 14.1046 53.5199 13.9545 53.7899 13.8644C54.3289 13.6274 54.9112 13.5051 55.4999 13.5051C56.0886 13.5051 56.6709 13.6274 57.2099 13.8644C57.4799 13.9545 57.7499 14.1046 57.9899 14.2547C58.2299 14.4349 58.4698 14.615 58.6798 14.8252C58.8898 15.0353 59.0698 15.2755 59.2498 15.5157C59.3998 15.7559 59.5498 16.0261 59.6398 16.2963C59.8822 16.8339 60.005 17.4178 59.9998 18.0075C60.0004 18.7505 59.8171 19.4821 59.4664 20.1369C59.1157 20.7917 58.6084 21.3495 57.9899 21.7604C57.7499 21.9105 57.4799 22.0606 57.2099 22.1807C56.9399 22.2708 56.6699 22.3608 56.3699 22.4209C56.0699 22.4809 55.7999 22.5109 55.4999 22.5109V22.5109ZM55.4999 33.0158C55.3199 33.0158 55.1099 32.9858 54.9299 32.9558C54.7312 32.9278 54.5386 32.8669 54.3599 32.7757C54.1687 32.71 53.9871 32.6192 53.8199 32.5055C53.6699 32.4154 53.5199 32.2653 53.3699 32.1452C53.2499 31.9951 53.0999 31.845 53.0099 31.6948C52.8963 31.5275 52.8055 31.3458 52.7399 31.1544C52.6532 30.9843 52.5926 30.8022 52.5599 30.614C52.5299 30.4039 52.4999 30.2237 52.4999 30.0136C52.4999 29.233 52.8299 28.4524 53.3699 27.882L53.8199 27.5217C53.9999 27.4016 54.1799 27.3115 54.3599 27.2515C54.5399 27.1614 54.7199 27.1014 54.9299 27.0714C55.2899 26.9813 55.6799 26.9813 56.0699 27.0714C56.2799 27.1014 56.4599 27.1614 56.6399 27.2515C56.8199 27.3115 56.9999 27.4016 57.1499 27.5217C57.3299 27.6418 57.4799 27.7619 57.6299 27.882C58.1698 28.4524 58.4998 29.233 58.4998 30.0136C58.4998 30.2237 58.4698 30.4039 58.4398 30.614C58.4098 30.7942 58.3499 30.9743 58.2599 31.1544C58.1999 31.3346 58.1099 31.5147 57.9899 31.6948L57.6299 32.1452C57.4799 32.2653 57.3299 32.4154 57.1499 32.5055C56.9999 32.6255 56.8199 32.7156 56.6399 32.7757C56.4599 32.8657 56.2799 32.9258 56.0699 32.9558C55.8899 32.9858 55.6799 33.0158 55.4999 33.0158V33.0158ZM4.50025 33.0158C3.72026 33.0158 2.94027 32.6856 2.37027 32.1452C1.83027 31.5748 1.50028 30.7942 1.50028 30.0136C1.50028 29.233 1.83027 28.4524 2.37027 27.882C3.21026 27.0413 4.53025 26.7711 5.64025 27.2515C6.03024 27.4016 6.33024 27.6118 6.63024 27.882C7.17023 28.4524 7.50023 29.233 7.50023 30.0136C7.50023 30.7942 7.17023 31.5748 6.63024 32.1452C6.06024 32.6856 5.28025 33.0158 4.50025 33.0158V33.0158ZM55.4999 41.2691C55.195 41.2848 54.8902 41.2383 54.6038 41.1325C54.3175 41.0266 54.0557 40.8635 53.8344 40.6531C53.613 40.4428 53.4367 40.1895 53.3163 39.9088C53.1959 39.6281 53.1337 39.3258 53.1337 39.0204C53.1337 38.7149 53.1959 38.4126 53.3163 38.1319C53.4367 37.8512 53.613 37.598 53.8344 37.3876C54.0557 37.1772 54.3175 37.0141 54.6038 36.9083C54.8902 36.8024 55.195 36.7559 55.4999 36.7717C56.0757 36.8015 56.6182 37.0514 57.0152 37.4698C57.4123 37.8883 57.6337 38.4433 57.6337 39.0204C57.6337 39.5974 57.4123 40.1525 57.0152 40.5709C56.6182 40.9893 56.0757 41.2393 55.4999 41.2691V41.2691ZM4.50025 41.2811C4.12984 41.2802 3.76537 41.1879 3.43917 41.0123C3.11298 40.8366 2.83516 40.5831 2.63038 40.2742C2.4256 39.9653 2.30018 39.6106 2.26528 39.2416C2.23037 38.8725 2.28704 38.5006 2.43027 38.1587C2.52027 37.8885 2.70027 37.6483 2.91027 37.4382C3.72026 36.5975 5.25025 36.5975 6.09024 37.4382C6.50532 37.8647 6.74148 38.4341 6.75024 39.0294C6.74148 39.6247 6.50532 40.194 6.09024 40.6206C5.66869 41.043 5.09679 41.2805 4.50025 41.2811V41.2811ZM55.4999 48.7807C55.2899 48.7807 55.1099 48.7507 54.9299 48.6606C54.7423 48.5973 54.5761 48.4829 54.4499 48.3304C54.3058 48.1963 54.1913 48.0336 54.1138 47.8526C54.0363 47.6716 53.9975 47.4764 53.9999 47.2796C54.024 46.8979 54.1926 46.5397 54.4712 46.2779C54.7499 46.0161 55.1177 45.8704 55.4999 45.8704C55.8821 45.8704 56.2499 46.0161 56.5285 46.2779C56.8072 46.5397 56.9757 46.8979 56.9999 47.2796C56.9999 47.6699 56.8499 48.0602 56.5499 48.3304C56.4159 48.4746 56.2533 48.5892 56.0725 48.6667C55.8917 48.7443 55.6966 48.7831 55.4999 48.7807V48.7807ZM4.50025 48.7807C4.11026 48.7807 3.72026 48.6306 3.45026 48.3304C3.30615 48.1963 3.19167 48.0336 3.11417 47.8526C3.03667 47.6716 2.99787 47.4764 3.00027 47.2796C3.0244 46.8979 3.19294 46.5397 3.47159 46.2779C3.75023 46.0161 4.11807 45.8704 4.50025 45.8704C4.88244 45.8704 5.25027 46.0161 5.52892 46.2779C5.80757 46.5397 5.97611 46.8979 6.00024 47.2796C6.00024 47.6699 5.85024 48.0602 5.55025 48.3304C5.28025 48.6306 4.89025 48.7807 4.50025 48.7807ZM17.2502 15.7559C16.6608 15.7611 16.0774 15.6381 15.5402 15.3956C15.2402 15.3055 15.0002 15.1554 14.7602 15.0053C14.1448 14.5912 13.64 14.0327 13.2896 13.3786C12.9393 12.7245 12.7541 11.9946 12.7502 11.2525C12.7502 10.0816 13.2302 8.9107 14.0702 8.07007C15.7502 6.3888 18.7501 6.3888 20.4301 8.07007C20.9019 8.54125 21.2631 9.11148 21.4876 9.73952C21.7122 10.3675 21.7944 11.0377 21.7283 11.7014C21.6623 12.3651 21.4497 13.0059 21.1058 13.5773C20.762 14.1487 20.2955 14.6365 19.7401 15.0053C19.5001 15.1554 19.2301 15.3055 18.9601 15.3956C18.4229 15.6381 17.8395 15.7611 17.2502 15.7559V15.7559ZM42.75 15.7559C42.1606 15.761 41.5772 15.638 41.04 15.3956C40.77 15.3055 40.5 15.1554 40.26 15.0053C40.0168 14.8317 39.7863 14.6411 39.57 14.4349C39.36 14.2247 39.18 13.9845 39 13.7443C38.85 13.5042 38.7 13.234 38.58 12.9638C38.49 12.6935 38.4 12.4233 38.34 12.1231C38.28 11.8529 38.25 11.5527 38.25 11.2525C38.2539 10.5103 38.4391 9.78043 38.7894 9.12633C39.1398 8.47223 39.6446 7.91378 40.26 7.49964C40.5 7.34953 40.77 7.19941 41.04 7.10935C41.579 6.87235 42.1613 6.74998 42.75 6.74998C43.3387 6.74998 43.921 6.87235 44.46 7.10935C44.73 7.19941 45 7.34953 45.24 7.49964C45.8553 7.91378 46.3602 8.47223 46.7105 9.12633C47.0608 9.78043 47.246 10.5103 47.2499 11.2525C47.2499 11.5527 47.2199 11.8529 47.1599 12.1231C47.0999 12.4233 47.0099 12.6935 46.9199 12.9638C46.7999 13.234 46.6499 13.5042 46.4999 13.7443C46.3199 13.9845 46.1399 14.2247 45.9299 14.4349C45.7199 14.645 45.4799 14.8252 45.24 15.0053C45 15.1554 44.73 15.3055 44.46 15.3956C43.9227 15.638 43.3393 15.761 42.75 15.7559ZM17.2502 28.5155C16.9502 28.5155 16.6502 28.4854 16.3802 28.4254C16.0802 28.3653 15.8102 28.2753 15.5402 28.1852C14.9876 27.9591 14.4873 27.6219 14.0702 27.1945C13.6526 26.7766 13.3213 26.2804 13.0953 25.7344C12.8692 25.1883 12.7529 24.6031 12.7529 24.0121C12.7529 23.421 12.8692 22.8358 13.0953 22.2897C13.3213 21.7437 13.6526 21.2476 14.0702 20.8297C15.7502 19.1484 18.7501 19.1484 20.4301 20.8297C21.0601 21.4589 21.4894 22.2611 21.6635 23.1346C21.8376 24.0082 21.7488 24.9138 21.4083 25.7368C21.0678 26.5597 20.4909 27.2631 19.7507 27.7578C19.0105 28.2524 18.1402 28.5161 17.2502 28.5155V28.5155ZM42.75 28.5155C42.1606 28.5206 41.5772 28.3976 41.04 28.1552C40.77 28.0651 40.5 27.915 40.26 27.7649C40.02 27.5848 39.78 27.4046 39.57 27.1945C39.36 26.9843 39.18 26.7441 39 26.5039C38.85 26.2638 38.7 25.9936 38.58 25.7234C38.49 25.4531 38.4 25.1829 38.34 24.8827C38.28 24.6125 38.25 24.3123 38.25 24.0121C38.25 22.8412 38.73 21.6703 39.57 20.8297C39.78 20.6195 40.02 20.4394 40.26 20.2592C40.5 20.1091 40.77 19.959 41.04 19.8689C41.579 19.632 42.1613 19.5096 42.75 19.5096C43.3387 19.5096 43.921 19.632 44.46 19.8689C44.73 19.959 45 20.1091 45.24 20.2592C45.8553 20.6734 46.3602 21.2318 46.7105 21.8859C47.0608 22.54 47.246 23.2699 47.2499 24.0121C47.2499 24.3123 47.2199 24.6125 47.1599 24.8827C47.0999 25.1829 47.0099 25.4531 46.9199 25.7234C46.7999 25.9936 46.6499 26.2638 46.4999 26.5039C46.3199 26.7441 46.1399 26.9843 45.9299 27.1945C45.7199 27.4046 45.4799 27.5848 45.24 27.7649C45 27.915 44.73 28.0651 44.46 28.1552C43.9227 28.3976 43.3393 28.5206 42.75 28.5155ZM17.2502 39.0234C16.8602 39.0234 16.4702 38.9333 16.1102 38.7832C15.7394 38.6454 15.402 38.4305 15.1202 38.1527C14.8502 37.8525 14.6402 37.5222 14.4902 37.162C14.3361 36.8011 14.2545 36.4135 14.2502 36.0211C14.2502 35.2405 14.5802 34.4599 15.1202 33.8895C16.2302 32.7787 18.2702 32.7787 19.3801 33.8895C19.9201 34.4599 20.2501 35.2405 20.2501 36.0211C20.2501 36.4114 20.1601 36.8017 20.0101 37.162C19.8601 37.5222 19.6501 37.8525 19.3801 38.1527C18.8101 38.6931 18.0302 39.0234 17.2502 39.0234V39.0234ZM42.75 39.0234C41.97 39.0234 41.19 38.6931 40.62 38.1527C40.08 37.5823 39.75 36.8017 39.75 36.0211C39.75 35.2405 40.08 34.4599 40.62 33.8895C41.73 32.7787 43.74 32.7787 44.88 33.8895C45.4199 34.4599 45.7499 35.2405 45.7499 36.0211C45.7499 36.2313 45.7199 36.4114 45.6899 36.6216C45.6599 36.8017 45.5999 36.9818 45.5099 37.162C45.4499 37.3421 45.3599 37.5222 45.24 37.6723C45.12 37.8525 45 38.0026 44.88 38.1527C44.31 38.6931 43.53 39.0234 42.75 39.0234V39.0234ZM17.2502 48.0301C16.948 48.0412 16.6467 47.9912 16.3642 47.8831C16.0818 47.7749 15.824 47.611 15.6063 47.4009C15.3887 47.1909 15.2155 46.9391 15.0972 46.6606C14.979 46.3821 14.918 46.0826 14.918 45.7799C14.918 45.4773 14.979 45.1778 15.0972 44.8993C15.2155 44.6208 15.3887 44.369 15.6063 44.1589C15.824 43.9489 16.0818 43.7849 16.3642 43.6768C16.6467 43.5687 16.948 43.5187 17.2502 43.5297C17.8323 43.551 18.3835 43.7974 18.7878 44.2171C19.1921 44.6368 19.418 45.197 19.418 45.7799C19.418 46.3629 19.1921 46.9231 18.7878 47.3428C18.3835 47.7625 17.8323 48.0089 17.2502 48.0301V48.0301ZM42.75 48.0301C42.1551 48.0214 41.5862 47.785 41.16 47.3696C40.9467 47.1696 40.7824 46.923 40.68 46.6491C40.5588 46.3749 40.4962 46.0783 40.4962 45.7784C40.4962 45.4786 40.5588 45.182 40.68 44.9078C40.8 44.6376 40.95 44.3974 41.16 44.1872C41.37 43.9771 41.61 43.827 41.88 43.7069C42.1546 43.5879 42.4507 43.5265 42.75 43.5265C43.0492 43.5265 43.3453 43.5879 43.62 43.7069C43.89 43.827 44.13 43.9771 44.34 44.1872C44.755 44.6138 44.9912 45.1831 45 45.7784C44.9912 46.3738 44.755 46.9431 44.34 47.3696C43.9184 47.792 43.3465 48.0296 42.75 48.0301ZM17.2502 54.7852C16.8602 54.7852 16.4702 54.6351 16.2002 54.3349C16.0561 54.2008 15.9416 54.0381 15.8641 53.8571C15.7866 53.6762 15.7478 53.481 15.7502 53.2841C15.7743 52.9024 15.9428 52.5442 16.2215 52.2824C16.5001 52.0207 16.868 51.8749 17.2502 51.8749C17.6323 51.8749 18.0002 52.0207 18.2788 52.2824C18.5575 52.5442 18.726 52.9024 18.7501 53.2841C18.7501 53.6744 18.6001 54.0647 18.3002 54.3349C18.0302 54.6351 17.6402 54.7852 17.2502 54.7852ZM42.75 54.7852C42.54 54.7852 42.36 54.7552 42.18 54.6651C41.9924 54.6018 41.8262 54.4875 41.7 54.3349C41.5475 54.2086 41.4332 54.0422 41.37 53.8545C41.2845 53.6769 41.2433 53.4811 41.25 53.2841C41.2741 52.9024 41.4427 52.5442 41.7213 52.2824C42 52.0207 42.3678 51.8749 42.75 51.8749C43.1322 51.8749 43.5 52.0207 43.7786 52.2824C44.0573 52.5442 44.2258 52.9024 44.25 53.2841C44.25 53.4942 44.22 53.6744 44.13 53.8545C44.07 54.0347 43.95 54.2148 43.8 54.3349C43.666 54.4791 43.5034 54.5937 43.3226 54.6712C43.1417 54.7488 42.9467 54.7876 42.75 54.7852V54.7852Z" fill="url(#paint0_linear_713_9)"/>
<defs>
<linearGradient id="paint0_linear_713_9" x1="30" y1="-28.5" x2="30" y2="61" gradientUnits="userSpaceOnUse">
<stop stop-color="#B5A7E7"/>
<stop offset="1" stop-color="#744FD7"/>
</linearGradient>
</defs>
</svg>
