<svg width="70" height="61" viewBox="0 0 70 61" fill="none" xmlns="http://www.w3.org/2000/svg">
<path d="M2.17563 13.0538H58.742C59.944 13.0538 60.9176 12.0802 60.9176 10.8781V2.17563C60.9176 0.973594 59.944 0 58.742 0H2.17563C0.973594 0 0 0.973594 0 2.17563V10.8781C0 12.0802 0.973594 13.0538 2.17563 13.0538ZM67.4445 23.9319H10.8781C9.67611 23.9319 8.70251 24.9055 8.70251 26.1075V34.8101C8.70251 36.0121 9.67611 36.9857 10.8781 36.9857H67.4445C68.6465 36.9857 69.6201 36.0121 69.6201 34.8101V26.1075C69.6201 24.9055 68.6465 23.9319 67.4445 23.9319ZM58.742 47.8638H2.17563C0.973594 47.8638 0 48.8374 0 50.0395V58.742C0 59.944 0.973594 60.9176 2.17563 60.9176H58.742C59.944 60.9176 60.9176 59.944 60.9176 58.742V50.0395C60.9176 48.8374 59.944 47.8638 58.742 47.8638Z" fill="#7B5EE2"/>
</svg>
