<svg width="288" height="92" viewBox="0 0 288 92" fill="none" xmlns="http://www.w3.org/2000/svg">
<path d="M34.855 14.5C42.335 14.5 48.4833 16.03 53.3 19.09C58.1167 22.0933 60.5817 26.57 60.695 32.52V33.54H43.1V33.2C43.1 31.5 42.4767 30.0833 41.23 28.95C39.9833 27.8167 38.085 27.25 35.535 27.25C33.0417 27.25 31.115 27.6183 29.755 28.355C28.4517 29.0917 27.8 29.9983 27.8 31.075C27.8 32.605 28.7067 33.7383 30.52 34.475C32.3333 35.2117 35.2517 35.9767 39.275 36.77C43.9783 37.7333 47.8317 38.7533 50.835 39.83C53.895 40.85 56.5583 42.55 58.825 44.93C61.0917 47.31 62.2533 50.54 62.31 54.62C62.31 61.5333 59.9583 66.6617 55.255 70.005C50.6083 73.3483 44.375 75.02 36.555 75.02C27.4317 75.02 20.32 73.49 15.22 70.43C10.1767 67.37 7.655 61.9583 7.655 54.195H25.42C25.42 57.1417 26.185 59.125 27.715 60.145C29.245 61.1083 31.625 61.59 34.855 61.59C37.235 61.59 39.19 61.335 40.72 60.825C42.3067 60.315 43.1 59.2667 43.1 57.68C43.1 56.2633 42.2217 55.215 40.465 54.535C38.765 53.7983 35.96 53.0333 32.05 52.24C27.29 51.22 23.3517 50.1717 20.235 49.095C17.1183 47.9617 14.3983 46.12 12.075 43.57C9.75167 41.02 8.59 37.5633 8.59 33.2C8.59 26.7967 11.055 22.0933 15.985 19.09C20.9717 16.03 27.2617 14.5 34.855 14.5Z" fill="url(#paint0_linear_720_16)"/>
<rect x="1" y="8" width="67" height="73" stroke="#744FD7" stroke-width="2"/>
<path d="M93.863 39.466C93.863 40.852 93.522 42.062 92.84 43.096C92.158 44.13 91.168 44.933 89.87 45.505C88.594 46.055 87.032 46.33 85.184 46.33C84.37 46.33 83.567 46.275 82.775 46.165C82.005 46.055 81.257 45.901 80.531 45.703C79.827 45.483 79.156 45.219 78.518 44.911V40.258C79.64 40.742 80.795 41.193 81.983 41.611C83.193 42.007 84.392 42.205 85.58 42.205C86.394 42.205 87.043 42.095 87.527 41.875C88.033 41.655 88.396 41.358 88.616 40.984C88.858 40.61 88.979 40.181 88.979 39.697C88.979 39.103 88.77 38.597 88.352 38.179C87.956 37.761 87.417 37.376 86.735 37.024C86.053 36.65 85.272 36.254 84.392 35.836C83.842 35.572 83.248 35.264 82.61 34.912C81.972 34.538 81.356 34.087 80.762 33.559C80.19 33.009 79.717 32.349 79.343 31.579C78.969 30.809 78.782 29.885 78.782 28.807C78.782 27.399 79.101 26.2 79.739 25.21C80.399 24.198 81.323 23.428 82.511 22.9C83.721 22.372 85.14 22.108 86.768 22.108C88 22.108 89.166 22.251 90.266 22.537C91.388 22.823 92.554 23.23 93.764 23.758L92.147 27.652C91.069 27.212 90.101 26.871 89.243 26.629C88.385 26.387 87.505 26.266 86.603 26.266C85.987 26.266 85.459 26.365 85.019 26.563C84.579 26.761 84.238 27.036 83.996 27.388C83.776 27.74 83.666 28.158 83.666 28.642C83.666 29.192 83.831 29.665 84.161 30.061C84.491 30.435 84.986 30.798 85.646 31.15C86.306 31.502 87.131 31.92 88.121 32.404C89.331 32.976 90.354 33.57 91.19 34.186C92.048 34.802 92.708 35.528 93.17 36.364C93.632 37.2 93.863 38.234 93.863 39.466ZM105.076 46.33C103.294 46.33 101.776 46.011 100.522 45.373C99.2678 44.713 98.3108 43.701 97.6508 42.337C96.9908 40.973 96.6608 39.224 96.6608 37.09C96.6608 34.89 97.0348 33.097 97.7828 31.711C98.5308 30.325 99.5648 29.302 100.885 28.642C102.227 27.982 103.767 27.652 105.505 27.652C106.737 27.652 107.804 27.773 108.706 28.015C109.63 28.257 110.433 28.543 111.115 28.873L109.663 32.668C108.893 32.36 108.167 32.107 107.485 31.909C106.825 31.711 106.165 31.612 105.505 31.612C104.647 31.612 103.932 31.821 103.36 32.239C102.788 32.635 102.359 33.24 102.073 34.054C101.809 34.846 101.677 35.847 101.677 37.057C101.677 38.245 101.82 39.235 102.106 40.027C102.414 40.797 102.854 41.38 103.426 41.776C103.998 42.15 104.691 42.337 105.505 42.337C106.539 42.337 107.452 42.205 108.244 41.941C109.036 41.655 109.806 41.27 110.554 40.786V44.977C109.806 45.461 109.014 45.802 108.178 46C107.364 46.22 106.33 46.33 105.076 46.33ZM119.618 26.035C119.618 26.915 119.585 27.762 119.519 28.576C119.475 29.39 119.431 29.962 119.387 30.292H119.651C120.047 29.676 120.509 29.181 121.037 28.807C121.565 28.411 122.148 28.125 122.786 27.949C123.446 27.751 124.139 27.652 124.865 27.652C126.163 27.652 127.296 27.883 128.264 28.345C129.232 28.807 129.98 29.522 130.508 30.49C131.058 31.458 131.333 32.712 131.333 34.252V46H126.416V35.473C126.416 34.175 126.174 33.207 125.69 32.569C125.228 31.909 124.502 31.579 123.512 31.579C122.522 31.579 121.741 31.81 121.169 32.272C120.619 32.734 120.223 33.405 119.981 34.285C119.739 35.165 119.618 36.243 119.618 37.519V46H114.701V20.92H119.618V26.035ZM143.814 27.652C145.486 27.652 146.916 27.971 148.104 28.609C149.314 29.247 150.249 30.171 150.909 31.381C151.569 32.591 151.899 34.076 151.899 35.836V38.212H140.283C140.327 39.598 140.734 40.687 141.504 41.479C142.296 42.271 143.385 42.667 144.771 42.667C145.937 42.667 146.993 42.557 147.939 42.337C148.885 42.095 149.864 41.732 150.876 41.248V45.043C149.996 45.483 149.061 45.802 148.071 46C147.103 46.22 145.926 46.33 144.54 46.33C142.736 46.33 141.141 46 139.755 45.34C138.369 44.658 137.28 43.635 136.488 42.271C135.696 40.907 135.3 39.191 135.3 37.123C135.3 35.011 135.652 33.262 136.356 31.876C137.082 30.468 138.083 29.412 139.359 28.708C140.635 28.004 142.12 27.652 143.814 27.652ZM143.847 31.15C142.901 31.15 142.109 31.458 141.471 32.074C140.855 32.69 140.492 33.647 140.382 34.945H147.279C147.279 34.219 147.147 33.57 146.883 32.998C146.641 32.426 146.267 31.975 145.761 31.645C145.255 31.315 144.617 31.15 143.847 31.15ZM177.04 27.652C179.086 27.652 180.626 28.18 181.66 29.236C182.716 30.27 183.244 31.942 183.244 34.252V46H178.327V35.473C178.327 34.175 178.107 33.207 177.667 32.569C177.227 31.909 176.545 31.579 175.621 31.579C174.323 31.579 173.399 32.041 172.849 32.965C172.299 33.889 172.024 35.22 172.024 36.958V46H167.107V35.473C167.107 34.615 167.008 33.9 166.81 33.328C166.612 32.756 166.315 32.327 165.919 32.041C165.523 31.733 165.017 31.579 164.401 31.579C163.499 31.579 162.784 31.81 162.256 32.272C161.728 32.734 161.354 33.405 161.134 34.285C160.914 35.165 160.804 36.243 160.804 37.519V46H155.887V27.982H159.649L160.309 30.292H160.573C160.947 29.676 161.409 29.181 161.959 28.807C162.509 28.411 163.114 28.125 163.774 27.949C164.456 27.751 165.138 27.652 165.82 27.652C167.14 27.652 168.262 27.872 169.186 28.312C170.11 28.73 170.814 29.39 171.298 30.292H171.727C172.277 29.368 173.036 28.697 174.004 28.279C174.994 27.861 176.006 27.652 177.04 27.652ZM195.731 27.652C197.403 27.652 198.833 27.971 200.021 28.609C201.231 29.247 202.166 30.171 202.826 31.381C203.486 32.591 203.816 34.076 203.816 35.836V38.212H192.2C192.244 39.598 192.651 40.687 193.421 41.479C194.213 42.271 195.302 42.667 196.688 42.667C197.854 42.667 198.91 42.557 199.856 42.337C200.802 42.095 201.781 41.732 202.793 41.248V45.043C201.913 45.483 200.978 45.802 199.988 46C199.02 46.22 197.843 46.33 196.457 46.33C194.653 46.33 193.058 46 191.672 45.34C190.286 44.658 189.197 43.635 188.405 42.271C187.613 40.907 187.217 39.191 187.217 37.123C187.217 35.011 187.569 33.262 188.273 31.876C188.999 30.468 190 29.412 191.276 28.708C192.552 28.004 194.037 27.652 195.731 27.652ZM195.764 31.15C194.818 31.15 194.026 31.458 193.388 32.074C192.772 32.69 192.409 33.647 192.299 34.945H199.196C199.196 34.219 199.064 33.57 198.8 32.998C198.558 32.426 198.184 31.975 197.678 31.645C197.172 31.315 196.534 31.15 195.764 31.15ZM220.376 40.654C220.376 41.864 220.09 42.898 219.518 43.756C218.946 44.592 218.088 45.23 216.944 45.67C215.8 46.11 214.381 46.33 212.687 46.33C211.433 46.33 210.355 46.242 209.453 46.066C208.551 45.912 207.649 45.648 206.747 45.274V41.215C207.715 41.655 208.76 42.018 209.882 42.304C211.004 42.59 211.994 42.733 212.852 42.733C213.82 42.733 214.502 42.59 214.898 42.304C215.316 42.018 215.525 41.644 215.525 41.182C215.525 40.874 215.437 40.599 215.261 40.357C215.107 40.115 214.755 39.84 214.205 39.532C213.655 39.224 212.797 38.828 211.631 38.344C210.509 37.86 209.585 37.387 208.859 36.925C208.133 36.441 207.594 35.869 207.242 35.209C206.89 34.527 206.714 33.68 206.714 32.668C206.714 30.996 207.363 29.742 208.661 28.906C209.959 28.07 211.686 27.652 213.842 27.652C214.964 27.652 216.031 27.762 217.043 27.982C218.055 28.202 219.1 28.565 220.178 29.071L218.693 32.602C218.099 32.338 217.527 32.107 216.977 31.909C216.427 31.711 215.888 31.557 215.36 31.447C214.854 31.337 214.326 31.282 213.776 31.282C213.05 31.282 212.5 31.381 212.126 31.579C211.774 31.777 211.598 32.074 211.598 32.47C211.598 32.756 211.686 33.02 211.862 33.262C212.06 33.482 212.423 33.724 212.951 33.988C213.501 34.252 214.304 34.604 215.36 35.044C216.394 35.462 217.285 35.902 218.033 36.364C218.781 36.804 219.353 37.365 219.749 38.047C220.167 38.707 220.376 39.576 220.376 40.654ZM241.082 38.6685H229.464V36.6865H241.082V38.6685ZM259.711 46H248.986V43.162L251.857 41.842V26.596L248.986 25.276V22.438H259.711V25.276L256.84 26.596V41.842L259.711 43.162V46ZM284.615 46H278.279L268.016 28.18H267.884C267.906 28.73 267.928 29.291 267.95 29.863C267.972 30.413 267.994 30.974 268.016 31.546C268.06 32.096 268.093 32.657 268.115 33.229C268.137 33.779 268.159 34.34 268.181 34.912V46H263.726V22.438H270.029L280.259 40.093H280.358C280.336 39.543 280.314 39.004 280.292 38.476C280.27 37.926 280.248 37.387 280.226 36.859C280.226 36.309 280.215 35.77 280.193 35.242C280.171 34.692 280.149 34.142 280.127 33.592V22.438H284.615V46Z" fill="url(#paint1_linear_720_16)"/>
<path d="M82.12 58.86C82.7533 58.86 83.2833 58.92 83.71 59.04C84.1433 59.1533 84.4667 59.3433 84.68 59.61C84.9 59.87 85.01 60.2233 85.01 60.67C85.01 60.9367 84.9667 61.18 84.88 61.4C84.7933 61.62 84.6667 61.8 84.5 61.94C84.34 62.08 84.1433 62.17 83.91 62.21V62.26C84.15 62.3067 84.3667 62.39 84.56 62.51C84.7533 62.63 84.9067 62.8033 85.02 63.03C85.1333 63.2567 85.19 63.5567 85.19 63.93C85.19 64.3633 85.0833 64.7367 84.87 65.05C84.6633 65.3567 84.3633 65.5933 83.97 65.76C83.5767 65.92 83.11 66 82.57 66H79.9V58.86H82.12ZM82.29 61.69C82.73 61.69 83.0333 61.62 83.2 61.48C83.3733 61.34 83.46 61.1367 83.46 60.87C83.46 60.5967 83.36 60.4 83.16 60.28C82.96 60.16 82.6433 60.1 82.21 60.1H81.41V61.69H82.29ZM81.41 62.89V64.75H82.4C82.8533 64.75 83.17 64.6633 83.35 64.49C83.53 64.31 83.62 64.0733 83.62 63.78C83.62 63.6 83.58 63.4433 83.5 63.31C83.4267 63.1767 83.2967 63.0733 83.11 63C82.9233 62.9267 82.67 62.89 82.35 62.89H81.41ZM89.5488 60.44C89.6221 60.44 89.7088 60.4433 89.8088 60.45C89.9088 60.4567 89.9888 60.4667 90.0488 60.48L89.9388 61.88C89.8921 61.8667 89.8221 61.8567 89.7288 61.85C89.6421 61.8367 89.5654 61.83 89.4988 61.83C89.3054 61.83 89.1188 61.8567 88.9388 61.91C88.7588 61.9567 88.5954 62.0333 88.4488 62.14C88.3088 62.2467 88.1954 62.39 88.1088 62.57C88.0288 62.7433 87.9888 62.96 87.9888 63.22V66H86.4988V60.54H87.6288L87.8488 61.46H87.9188C88.0254 61.2733 88.1588 61.1033 88.3188 60.95C88.4788 60.7967 88.6621 60.6733 88.8688 60.58C89.0821 60.4867 89.3088 60.44 89.5488 60.44ZM92.5298 60.54V66H91.0398V60.54H92.5298ZM91.7898 58.4C92.0098 58.4 92.1998 58.4533 92.3598 58.56C92.5198 58.66 92.5998 58.85 92.5998 59.13C92.5998 59.4033 92.5198 59.5933 92.3598 59.7C92.1998 59.8067 92.0098 59.86 91.7898 59.86C91.5631 59.86 91.3698 59.8067 91.2098 59.7C91.0564 59.5933 90.9798 59.4033 90.9798 59.13C90.9798 58.85 91.0564 58.66 91.2098 58.56C91.3698 58.4533 91.5631 58.4 91.7898 58.4ZM95.8166 66.1C95.21 66.1 94.7133 65.8633 94.3266 65.39C93.9466 64.91 93.7566 64.2067 93.7566 63.28C93.7566 62.3467 93.95 61.64 94.3366 61.16C94.7233 60.68 95.23 60.44 95.8566 60.44C96.1166 60.44 96.3466 60.4767 96.5466 60.55C96.7466 60.6167 96.9166 60.71 97.0566 60.83C97.2033 60.95 97.3266 61.0867 97.4266 61.24H97.4766C97.4566 61.1333 97.4333 60.98 97.4066 60.78C97.38 60.5733 97.3666 60.3633 97.3666 60.15V58.4H98.8566V66H97.7166L97.4266 65.29H97.3666C97.2733 65.4367 97.1533 65.5733 97.0066 65.7C96.8666 65.82 96.7 65.9167 96.5066 65.99C96.3133 66.0633 96.0833 66.1 95.8166 66.1ZM96.3366 64.91C96.75 64.91 97.04 64.79 97.2066 64.55C97.3733 64.3033 97.46 63.9367 97.4666 63.45V63.29C97.4666 62.7567 97.3833 62.35 97.2166 62.07C97.0566 61.79 96.7566 61.65 96.3166 61.65C95.99 61.65 95.7333 61.7933 95.5466 62.08C95.36 62.36 95.2666 62.7667 95.2666 63.3C95.2666 63.8333 95.36 64.2367 95.5466 64.51C95.7333 64.7767 95.9966 64.91 96.3366 64.91ZM102.185 60.44C102.518 60.44 102.818 60.5067 103.085 60.64C103.351 60.7733 103.578 60.9733 103.765 61.24H103.805L103.925 60.54H105.185V66.01C105.185 66.53 105.081 66.9667 104.875 67.32C104.675 67.6733 104.371 67.94 103.965 68.12C103.558 68.3067 103.055 68.4 102.455 68.4C102.068 68.4 101.708 68.3767 101.375 68.33C101.048 68.2833 100.728 68.2 100.415 68.08V66.89C100.641 66.9833 100.868 67.06 101.095 67.12C101.328 67.1867 101.565 67.2333 101.805 67.26C102.051 67.2933 102.298 67.31 102.545 67.31C102.931 67.31 103.218 67.2067 103.405 67C103.598 66.7933 103.695 66.4833 103.695 66.07V65.96C103.695 65.8467 103.698 65.73 103.705 65.61C103.718 65.49 103.728 65.3833 103.735 65.29H103.695C103.508 65.5767 103.285 65.7833 103.025 65.91C102.765 66.0367 102.471 66.1 102.145 66.1C101.498 66.1 100.991 65.8533 100.625 65.36C100.265 64.86 100.085 64.1667 100.085 63.28C100.085 62.68 100.168 62.17 100.335 61.75C100.501 61.3233 100.741 61 101.055 60.78C101.375 60.5533 101.751 60.44 102.185 60.44ZM102.655 61.65C102.421 61.65 102.225 61.7133 102.065 61.84C101.911 61.96 101.795 62.1433 101.715 62.39C101.641 62.63 101.605 62.9333 101.605 63.3C101.605 63.8467 101.691 64.2567 101.865 64.53C102.038 64.7967 102.308 64.93 102.675 64.93C102.868 64.93 103.035 64.9067 103.175 64.86C103.315 64.8067 103.428 64.7233 103.515 64.61C103.608 64.49 103.678 64.3367 103.725 64.15C103.771 63.9633 103.795 63.7367 103.795 63.47V63.29C103.795 62.8967 103.755 62.58 103.675 62.34C103.595 62.1 103.471 61.9267 103.305 61.82C103.138 61.7067 102.921 61.65 102.655 61.65ZM108.233 60.54V66H106.743V60.54H108.233ZM107.493 58.4C107.713 58.4 107.903 58.4533 108.063 58.56C108.223 58.66 108.303 58.85 108.303 59.13C108.303 59.4033 108.223 59.5933 108.063 59.7C107.903 59.8067 107.713 59.86 107.493 59.86C107.266 59.86 107.073 59.8067 106.913 59.7C106.76 59.5933 106.683 59.4033 106.683 59.13C106.683 58.85 106.76 58.66 106.913 58.56C107.073 58.4533 107.266 58.4 107.493 58.4ZM112.89 60.44C113.476 60.44 113.946 60.6 114.3 60.92C114.653 61.2333 114.83 61.74 114.83 62.44V66H113.34V62.81C113.34 62.4167 113.27 62.1233 113.13 61.93C112.99 61.73 112.766 61.63 112.46 61.63C112.006 61.63 111.696 61.7867 111.53 62.1C111.363 62.4067 111.28 62.85 111.28 63.43V66H109.79V60.54H110.93L111.13 61.24H111.21C111.33 61.0533 111.476 60.9033 111.65 60.79C111.823 60.67 112.016 60.5833 112.23 60.53C112.443 60.47 112.663 60.44 112.89 60.44ZM118.132 60.44C118.465 60.44 118.765 60.5067 119.032 60.64C119.299 60.7733 119.525 60.9733 119.712 61.24H119.752L119.872 60.54H121.132V66.01C121.132 66.53 121.029 66.9667 120.822 67.32C120.622 67.6733 120.319 67.94 119.912 68.12C119.505 68.3067 119.002 68.4 118.402 68.4C118.015 68.4 117.655 68.3767 117.322 68.33C116.995 68.2833 116.675 68.2 116.362 68.08V66.89C116.589 66.9833 116.815 67.06 117.042 67.12C117.275 67.1867 117.512 67.2333 117.752 67.26C117.999 67.2933 118.245 67.31 118.492 67.31C118.879 67.31 119.165 67.2067 119.352 67C119.545 66.7933 119.642 66.4833 119.642 66.07V65.96C119.642 65.8467 119.645 65.73 119.652 65.61C119.665 65.49 119.675 65.3833 119.682 65.29H119.642C119.455 65.5767 119.232 65.7833 118.972 65.91C118.712 66.0367 118.419 66.1 118.092 66.1C117.445 66.1 116.939 65.8533 116.572 65.36C116.212 64.86 116.032 64.1667 116.032 63.28C116.032 62.68 116.115 62.17 116.282 61.75C116.449 61.3233 116.689 61 117.002 60.78C117.322 60.5533 117.699 60.44 118.132 60.44ZM118.602 61.65C118.369 61.65 118.172 61.7133 118.012 61.84C117.859 61.96 117.742 62.1433 117.662 62.39C117.589 62.63 117.552 62.9333 117.552 63.3C117.552 63.8467 117.639 64.2567 117.812 64.53C117.985 64.7967 118.255 64.93 118.622 64.93C118.815 64.93 118.982 64.9067 119.122 64.86C119.262 64.8067 119.375 64.7233 119.462 64.61C119.555 64.49 119.625 64.3367 119.672 64.15C119.719 63.9633 119.742 63.7367 119.742 63.47V63.29C119.742 62.8967 119.702 62.58 119.622 62.34C119.542 62.1 119.419 61.9267 119.252 61.82C119.085 61.7067 118.869 61.65 118.602 61.65ZM126.475 64.91C126.641 64.91 126.801 64.8933 126.955 64.86C127.108 64.8267 127.261 64.7867 127.415 64.74V65.85C127.255 65.9167 127.055 65.9733 126.815 66.02C126.581 66.0733 126.325 66.1 126.045 66.1C125.718 66.1 125.425 66.0467 125.165 65.94C124.911 65.8333 124.708 65.65 124.555 65.39C124.408 65.1233 124.335 64.7567 124.335 64.29V61.66H123.625V61.03L124.445 60.53L124.875 59.38H125.825V60.54H127.355V61.66H125.825V64.29C125.825 64.4967 125.885 64.6533 126.005 64.76C126.125 64.86 126.281 64.91 126.475 64.91ZM130 59.95C130 60.2167 129.99 60.4733 129.97 60.72C129.957 60.9667 129.944 61.14 129.93 61.24H130.01C130.13 61.0533 130.27 60.9033 130.43 60.79C130.59 60.67 130.767 60.5833 130.96 60.53C131.16 60.47 131.37 60.44 131.59 60.44C131.984 60.44 132.327 60.51 132.62 60.65C132.914 60.79 133.14 61.0067 133.3 61.3C133.467 61.5933 133.55 61.9733 133.55 62.44V66H132.06V62.81C132.06 62.4167 131.987 62.1233 131.84 61.93C131.7 61.73 131.48 61.63 131.18 61.63C130.88 61.63 130.644 61.7 130.47 61.84C130.304 61.98 130.184 62.1833 130.11 62.45C130.037 62.7167 130 63.0433 130 63.43V66H128.51V58.4H130V59.95ZM137.333 60.44C137.839 60.44 138.273 60.5367 138.633 60.73C138.999 60.9233 139.283 61.2033 139.483 61.57C139.683 61.9367 139.783 62.3867 139.783 62.92V63.64H136.263C136.276 64.06 136.399 64.39 136.633 64.63C136.873 64.87 137.203 64.99 137.623 64.99C137.976 64.99 138.296 64.9567 138.583 64.89C138.869 64.8167 139.166 64.7067 139.473 64.56V65.71C139.206 65.8433 138.923 65.94 138.623 66C138.329 66.0667 137.973 66.1 137.553 66.1C137.006 66.1 136.523 66 136.103 65.8C135.683 65.5933 135.353 65.2833 135.113 64.87C134.873 64.4567 134.753 63.9367 134.753 63.31C134.753 62.67 134.859 62.14 135.073 61.72C135.293 61.2933 135.596 60.9733 135.983 60.76C136.369 60.5467 136.819 60.44 137.333 60.44ZM137.343 61.5C137.056 61.5 136.816 61.5933 136.623 61.78C136.436 61.9667 136.326 62.2567 136.293 62.65H138.383C138.383 62.43 138.343 62.2333 138.263 62.06C138.189 61.8867 138.076 61.75 137.923 61.65C137.769 61.55 137.576 61.5 137.343 61.5ZM144.245 60.44C144.579 60.44 144.879 60.5067 145.145 60.64C145.412 60.7733 145.639 60.9733 145.825 61.24H145.865L145.985 60.54H147.245V66.01C147.245 66.53 147.142 66.9667 146.935 67.32C146.735 67.6733 146.432 67.94 146.025 68.12C145.619 68.3067 145.115 68.4 144.515 68.4C144.129 68.4 143.769 68.3767 143.435 68.33C143.109 68.2833 142.789 68.2 142.475 68.08V66.89C142.702 66.9833 142.929 67.06 143.155 67.12C143.389 67.1867 143.625 67.2333 143.865 67.26C144.112 67.2933 144.359 67.31 144.605 67.31C144.992 67.31 145.279 67.2067 145.465 67C145.659 66.7933 145.755 66.4833 145.755 66.07V65.96C145.755 65.8467 145.759 65.73 145.765 65.61C145.779 65.49 145.789 65.3833 145.795 65.29H145.755C145.569 65.5767 145.345 65.7833 145.085 65.91C144.825 66.0367 144.532 66.1 144.205 66.1C143.559 66.1 143.052 65.8533 142.685 65.36C142.325 64.86 142.145 64.1667 142.145 63.28C142.145 62.68 142.229 62.17 142.395 61.75C142.562 61.3233 142.802 61 143.115 60.78C143.435 60.5533 143.812 60.44 144.245 60.44ZM144.715 61.65C144.482 61.65 144.285 61.7133 144.125 61.84C143.972 61.96 143.855 62.1433 143.775 62.39C143.702 62.63 143.665 62.9333 143.665 63.3C143.665 63.8467 143.752 64.2567 143.925 64.53C144.099 64.7967 144.369 64.93 144.735 64.93C144.929 64.93 145.095 64.9067 145.235 64.86C145.375 64.8067 145.489 64.7233 145.575 64.61C145.669 64.49 145.739 64.3367 145.785 64.15C145.832 63.9633 145.855 63.7367 145.855 63.47V63.29C145.855 62.8967 145.815 62.58 145.735 62.34C145.655 62.1 145.532 61.9267 145.365 61.82C145.199 61.7067 144.982 61.65 144.715 61.65ZM151.043 60.43C151.777 60.43 152.337 60.59 152.723 60.91C153.117 61.2233 153.313 61.7067 153.313 62.36V66H152.273L151.983 65.26H151.943C151.79 65.4533 151.63 65.6133 151.463 65.74C151.303 65.8667 151.117 65.9567 150.903 66.01C150.697 66.07 150.44 66.1 150.133 66.1C149.813 66.1 149.523 66.04 149.263 65.92C149.01 65.7933 148.81 65.6033 148.663 65.35C148.517 65.09 148.443 64.7633 148.443 64.37C148.443 63.79 148.647 63.3633 149.053 63.09C149.46 62.81 150.07 62.6567 150.883 62.63L151.833 62.6V62.36C151.833 62.0733 151.757 61.8633 151.603 61.73C151.457 61.5967 151.25 61.53 150.983 61.53C150.717 61.53 150.457 61.57 150.203 61.65C149.95 61.7233 149.697 61.8167 149.443 61.93L148.953 60.92C149.247 60.7667 149.57 60.6467 149.923 60.56C150.283 60.4733 150.657 60.43 151.043 60.43ZM151.253 63.49C150.773 63.5033 150.44 63.59 150.253 63.75C150.067 63.91 149.973 64.12 149.973 64.38C149.973 64.6067 150.04 64.77 150.173 64.87C150.307 64.9633 150.48 65.01 150.693 65.01C151.013 65.01 151.283 64.9167 151.503 64.73C151.723 64.5367 151.833 64.2667 151.833 63.92V63.47L151.253 63.49ZM157.879 60.44C158.492 60.44 158.989 60.68 159.369 61.16C159.749 61.6333 159.939 62.3333 159.939 63.26C159.939 63.88 159.849 64.4033 159.669 64.83C159.489 65.25 159.242 65.5667 158.929 65.78C158.615 65.9933 158.252 66.1 157.839 66.1C157.579 66.1 157.352 66.0667 157.159 66C156.972 65.9333 156.812 65.8467 156.679 65.74C156.545 65.6333 156.429 65.52 156.329 65.4H156.249C156.275 65.5267 156.295 65.66 156.309 65.8C156.322 65.9333 156.329 66.0667 156.329 66.2V68.4H154.839V60.54H156.049L156.259 61.25H156.329C156.429 61.1033 156.549 60.97 156.689 60.85C156.829 60.7233 156.995 60.6233 157.189 60.55C157.389 60.4767 157.619 60.44 157.879 60.44ZM157.399 61.63C157.139 61.63 156.932 61.6833 156.779 61.79C156.625 61.8967 156.512 62.06 156.439 62.28C156.372 62.4933 156.335 62.7633 156.329 63.09V63.25C156.329 63.6033 156.362 63.9033 156.429 64.15C156.495 64.39 156.609 64.5733 156.769 64.7C156.929 64.8267 157.145 64.89 157.419 64.89C157.645 64.89 157.832 64.8267 157.979 64.7C158.125 64.5733 158.235 64.3867 158.309 64.14C158.382 63.8933 158.419 63.5933 158.419 63.24C158.419 62.7067 158.335 62.3067 158.169 62.04C158.009 61.7667 157.752 61.63 157.399 61.63ZM164.951 64.91C165.118 64.91 165.278 64.8933 165.431 64.86C165.584 64.8267 165.738 64.7867 165.891 64.74V65.85C165.731 65.9167 165.531 65.9733 165.291 66.02C165.058 66.0733 164.801 66.1 164.521 66.1C164.194 66.1 163.901 66.0467 163.641 65.94C163.388 65.8333 163.184 65.65 163.031 65.39C162.884 65.1233 162.811 64.7567 162.811 64.29V61.66H162.101V61.03L162.921 60.53L163.351 59.38H164.301V60.54H165.831V61.66H164.301V64.29C164.301 64.4967 164.361 64.6533 164.481 64.76C164.601 64.86 164.758 64.91 164.951 64.91ZM168.477 59.95C168.477 60.2167 168.467 60.4733 168.447 60.72C168.434 60.9667 168.42 61.14 168.407 61.24H168.487C168.607 61.0533 168.747 60.9033 168.907 60.79C169.067 60.67 169.244 60.5833 169.437 60.53C169.637 60.47 169.847 60.44 170.067 60.44C170.46 60.44 170.804 60.51 171.097 60.65C171.39 60.79 171.617 61.0067 171.777 61.3C171.944 61.5933 172.027 61.9733 172.027 62.44V66H170.537V62.81C170.537 62.4167 170.464 62.1233 170.317 61.93C170.177 61.73 169.957 61.63 169.657 61.63C169.357 61.63 169.12 61.7 168.947 61.84C168.78 61.98 168.66 62.1833 168.587 62.45C168.514 62.7167 168.477 63.0433 168.477 63.43V66H166.987V58.4H168.477V59.95ZM176.609 60.44C176.683 60.44 176.769 60.4433 176.869 60.45C176.969 60.4567 177.049 60.4667 177.109 60.48L176.999 61.88C176.953 61.8667 176.883 61.8567 176.789 61.85C176.703 61.8367 176.626 61.83 176.559 61.83C176.366 61.83 176.179 61.8567 175.999 61.91C175.819 61.9567 175.656 62.0333 175.509 62.14C175.369 62.2467 175.256 62.39 175.169 62.57C175.089 62.7433 175.049 62.96 175.049 63.22V66H173.559V60.54H174.689L174.909 61.46H174.979C175.086 61.2733 175.219 61.1033 175.379 60.95C175.539 60.7967 175.723 60.6733 175.929 60.58C176.143 60.4867 176.369 60.44 176.609 60.44ZM182.865 63.26C182.865 63.7133 182.802 64.1167 182.675 64.47C182.555 64.8233 182.378 65.1233 182.145 65.37C181.918 65.61 181.642 65.7933 181.315 65.92C180.988 66.04 180.618 66.1 180.205 66.1C179.825 66.1 179.472 66.04 179.145 65.92C178.825 65.7933 178.548 65.61 178.315 65.37C178.082 65.1233 177.898 64.8233 177.765 64.47C177.638 64.1167 177.575 63.7133 177.575 63.26C177.575 62.6533 177.682 62.1433 177.895 61.73C178.108 61.31 178.415 60.99 178.815 60.77C179.215 60.55 179.688 60.44 180.235 60.44C180.748 60.44 181.202 60.55 181.595 60.77C181.988 60.99 182.298 61.31 182.525 61.73C182.752 62.1433 182.865 62.6533 182.865 63.26ZM179.095 63.26C179.095 63.62 179.132 63.9233 179.205 64.17C179.285 64.41 179.408 64.5933 179.575 64.72C179.742 64.84 179.958 64.9 180.225 64.9C180.492 64.9 180.705 64.84 180.865 64.72C181.032 64.5933 181.152 64.41 181.225 64.17C181.305 63.9233 181.345 63.62 181.345 63.26C181.345 62.9 181.305 62.6 181.225 62.36C181.152 62.12 181.032 61.94 180.865 61.82C180.698 61.7 180.482 61.64 180.215 61.64C179.822 61.64 179.535 61.7767 179.355 62.05C179.182 62.3167 179.095 62.72 179.095 63.26ZM189.106 60.54V66H187.966L187.766 65.3H187.686C187.573 65.4867 187.426 65.64 187.246 65.76C187.073 65.8733 186.88 65.9567 186.666 66.01C186.453 66.07 186.233 66.1 186.006 66.1C185.62 66.1 185.28 66.03 184.986 65.89C184.693 65.75 184.466 65.5333 184.306 65.24C184.146 64.9467 184.066 64.5667 184.066 64.1V60.54H185.556V63.73C185.556 64.1167 185.626 64.41 185.766 64.61C185.906 64.81 186.13 64.91 186.436 64.91C186.743 64.91 186.98 64.84 187.146 64.7C187.32 64.56 187.44 64.3567 187.506 64.09C187.58 63.8233 187.616 63.4967 187.616 63.11V60.54H189.106ZM192.439 60.44C192.772 60.44 193.072 60.5067 193.339 60.64C193.605 60.7733 193.832 60.9733 194.019 61.24H194.059L194.179 60.54H195.439V66.01C195.439 66.53 195.335 66.9667 195.129 67.32C194.929 67.6733 194.625 67.94 194.219 68.12C193.812 68.3067 193.309 68.4 192.709 68.4C192.322 68.4 191.962 68.3767 191.629 68.33C191.302 68.2833 190.982 68.2 190.669 68.08V66.89C190.895 66.9833 191.122 67.06 191.349 67.12C191.582 67.1867 191.819 67.2333 192.059 67.26C192.305 67.2933 192.552 67.31 192.799 67.31C193.185 67.31 193.472 67.2067 193.659 67C193.852 66.7933 193.949 66.4833 193.949 66.07V65.96C193.949 65.8467 193.952 65.73 193.959 65.61C193.972 65.49 193.982 65.3833 193.989 65.29H193.949C193.762 65.5767 193.539 65.7833 193.279 65.91C193.019 66.0367 192.725 66.1 192.399 66.1C191.752 66.1 191.245 65.8533 190.879 65.36C190.519 64.86 190.339 64.1667 190.339 63.28C190.339 62.68 190.422 62.17 190.589 61.75C190.755 61.3233 190.995 61 191.309 60.78C191.629 60.5533 192.005 60.44 192.439 60.44ZM192.909 61.65C192.675 61.65 192.479 61.7133 192.319 61.84C192.165 61.96 192.049 62.1433 191.969 62.39C191.895 62.63 191.859 62.9333 191.859 63.3C191.859 63.8467 191.945 64.2567 192.119 64.53C192.292 64.7967 192.562 64.93 192.929 64.93C193.122 64.93 193.289 64.9067 193.429 64.86C193.569 64.8067 193.682 64.7233 193.769 64.61C193.862 64.49 193.932 64.3367 193.979 64.15C194.025 63.9633 194.049 63.7367 194.049 63.47V63.29C194.049 62.8967 194.009 62.58 193.929 62.34C193.849 62.1 193.725 61.9267 193.559 61.82C193.392 61.7067 193.175 61.65 192.909 61.65ZM198.487 59.95C198.487 60.2167 198.477 60.4733 198.457 60.72C198.443 60.9667 198.43 61.14 198.417 61.24H198.497C198.617 61.0533 198.757 60.9033 198.917 60.79C199.077 60.67 199.253 60.5833 199.447 60.53C199.647 60.47 199.857 60.44 200.077 60.44C200.47 60.44 200.813 60.51 201.107 60.65C201.4 60.79 201.627 61.0067 201.787 61.3C201.953 61.5933 202.037 61.9733 202.037 62.44V66H200.547V62.81C200.547 62.4167 200.473 62.1233 200.327 61.93C200.187 61.73 199.967 61.63 199.667 61.63C199.367 61.63 199.13 61.7 198.957 61.84C198.79 61.98 198.67 62.1833 198.597 62.45C198.523 62.7167 198.487 63.0433 198.487 63.43V66H196.997V58.4H198.487V59.95ZM209.123 64.09C209.097 63.9767 209.057 63.81 209.003 63.59C208.957 63.3633 208.903 63.1233 208.843 62.87C208.783 62.61 208.727 62.3733 208.673 62.16C208.62 61.94 208.583 61.78 208.563 61.68H208.523C208.503 61.78 208.467 61.94 208.413 62.16C208.367 62.3733 208.313 62.61 208.253 62.87C208.193 63.1233 208.137 63.3633 208.083 63.59C208.03 63.8167 207.99 63.99 207.963 64.11L207.523 66H205.923L204.373 60.54H205.853L206.483 62.96C206.53 63.1267 206.57 63.3267 206.603 63.56C206.643 63.7933 206.68 64.02 206.713 64.24C206.747 64.4533 206.77 64.6233 206.783 64.75H206.823C206.83 64.6567 206.843 64.5333 206.863 64.38C206.883 64.22 206.907 64.0567 206.933 63.89C206.967 63.7233 206.993 63.5733 207.013 63.44C207.04 63.3 207.06 63.2067 207.073 63.16L207.743 60.54H209.383L210.023 63.16C210.05 63.2533 210.08 63.4033 210.113 63.61C210.153 63.8167 210.187 64.0267 210.213 64.24C210.247 64.4533 210.263 64.6233 210.263 64.75H210.303C210.317 64.6367 210.34 64.4733 210.373 64.26C210.407 64.04 210.443 63.81 210.483 63.57C210.53 63.33 210.577 63.1267 210.623 62.96L211.273 60.54H212.733L211.163 66H209.543L209.123 64.09ZM215.868 60.44C216.375 60.44 216.808 60.5367 217.168 60.73C217.535 60.9233 217.818 61.2033 218.018 61.57C218.218 61.9367 218.318 62.3867 218.318 62.92V63.64H214.798C214.811 64.06 214.935 64.39 215.168 64.63C215.408 64.87 215.738 64.99 216.158 64.99C216.511 64.99 216.831 64.9567 217.118 64.89C217.405 64.8167 217.701 64.7067 218.008 64.56V65.71C217.741 65.8433 217.458 65.94 217.158 66C216.865 66.0667 216.508 66.1 216.088 66.1C215.541 66.1 215.058 66 214.638 65.8C214.218 65.5933 213.888 65.2833 213.648 64.87C213.408 64.4567 213.288 63.9367 213.288 63.31C213.288 62.67 213.395 62.14 213.608 61.72C213.828 61.2933 214.131 60.9733 214.518 60.76C214.905 60.5467 215.355 60.44 215.868 60.44ZM215.878 61.5C215.591 61.5 215.351 61.5933 215.158 61.78C214.971 61.9667 214.861 62.2567 214.828 62.65H216.918C216.918 62.43 216.878 62.2333 216.798 62.06C216.725 61.8867 216.611 61.75 216.458 61.65C216.305 61.55 216.111 61.5 215.878 61.5ZM221.016 66H219.526V58.4H221.016V66ZM225.593 61.66H224.303V66H222.813V61.66H221.993V60.94L222.813 60.54V60.14C222.813 59.6733 222.89 59.3133 223.043 59.06C223.203 58.8 223.426 58.6167 223.713 58.51C224.006 58.4033 224.35 58.35 224.743 58.35C225.036 58.35 225.3 58.3733 225.533 58.42C225.773 58.4667 225.966 58.52 226.113 58.58L225.733 59.67C225.62 59.6367 225.496 59.6067 225.363 59.58C225.23 59.5467 225.076 59.53 224.903 59.53C224.696 59.53 224.543 59.5933 224.443 59.72C224.35 59.8467 224.303 60.0067 224.303 60.2V60.54H225.593V61.66ZM228.68 60.43C229.413 60.43 229.973 60.59 230.36 60.91C230.753 61.2233 230.95 61.7067 230.95 62.36V66H229.91L229.62 65.26H229.58C229.427 65.4533 229.267 65.6133 229.1 65.74C228.94 65.8667 228.753 65.9567 228.54 66.01C228.333 66.07 228.077 66.1 227.77 66.1C227.45 66.1 227.16 66.04 226.9 65.92C226.647 65.7933 226.447 65.6033 226.3 65.35C226.153 65.09 226.08 64.7633 226.08 64.37C226.08 63.79 226.283 63.3633 226.69 63.09C227.097 62.81 227.707 62.6567 228.52 62.63L229.47 62.6V62.36C229.47 62.0733 229.393 61.8633 229.24 61.73C229.093 61.5967 228.887 61.53 228.62 61.53C228.353 61.53 228.093 61.57 227.84 61.65C227.587 61.7233 227.333 61.8167 227.08 61.93L226.59 60.92C226.883 60.7667 227.207 60.6467 227.56 60.56C227.92 60.4733 228.293 60.43 228.68 60.43ZM228.89 63.49C228.41 63.5033 228.077 63.59 227.89 63.75C227.703 63.91 227.61 64.12 227.61 64.38C227.61 64.6067 227.677 64.77 227.81 64.87C227.943 64.9633 228.117 65.01 228.33 65.01C228.65 65.01 228.92 64.9167 229.14 64.73C229.36 64.5367 229.47 64.2667 229.47 63.92V63.47L228.89 63.49ZM235.525 60.44C235.599 60.44 235.685 60.4433 235.785 60.45C235.885 60.4567 235.965 60.4667 236.025 60.48L235.915 61.88C235.869 61.8667 235.799 61.8567 235.705 61.85C235.619 61.8367 235.542 61.83 235.475 61.83C235.282 61.83 235.095 61.8567 234.915 61.91C234.735 61.9567 234.572 62.0333 234.425 62.14C234.285 62.2467 234.172 62.39 234.085 62.57C234.005 62.7433 233.965 62.96 233.965 63.22V66H232.475V60.54H233.605L233.825 61.46H233.895C234.002 61.2733 234.135 61.1033 234.295 60.95C234.455 60.7967 234.639 60.6733 234.845 60.58C235.059 60.4867 235.285 60.44 235.525 60.44ZM239.071 60.44C239.578 60.44 240.011 60.5367 240.371 60.73C240.738 60.9233 241.021 61.2033 241.221 61.57C241.421 61.9367 241.521 62.3867 241.521 62.92V63.64H238.001C238.014 64.06 238.138 64.39 238.371 64.63C238.611 64.87 238.941 64.99 239.361 64.99C239.714 64.99 240.034 64.9567 240.321 64.89C240.608 64.8167 240.904 64.7067 241.211 64.56V65.71C240.944 65.8433 240.661 65.94 240.361 66C240.068 66.0667 239.711 66.1 239.291 66.1C238.744 66.1 238.261 66 237.841 65.8C237.421 65.5933 237.091 65.2833 236.851 64.87C236.611 64.4567 236.491 63.9367 236.491 63.31C236.491 62.67 236.598 62.14 236.811 61.72C237.031 61.2933 237.334 60.9733 237.721 60.76C238.108 60.5467 238.558 60.44 239.071 60.44ZM239.081 61.5C238.794 61.5 238.554 61.5933 238.361 61.78C238.174 61.9667 238.064 62.2567 238.031 62.65H240.121C240.121 62.43 240.081 62.2333 240.001 62.06C239.928 61.8867 239.814 61.75 239.661 61.65C239.508 61.55 239.314 61.5 239.081 61.5ZM248.024 64.38C248.024 64.7467 247.937 65.06 247.764 65.32C247.59 65.5733 247.33 65.7667 246.984 65.9C246.637 66.0333 246.207 66.1 245.694 66.1C245.314 66.1 244.987 66.0733 244.714 66.02C244.44 65.9733 244.167 65.8933 243.894 65.78V64.55C244.187 64.6833 244.504 64.7933 244.844 64.88C245.184 64.9667 245.484 65.01 245.744 65.01C246.037 65.01 246.244 64.9667 246.364 64.88C246.49 64.7933 246.554 64.68 246.554 64.54C246.554 64.4467 246.527 64.3633 246.474 64.29C246.427 64.2167 246.32 64.1333 246.154 64.04C245.987 63.9467 245.727 63.8267 245.374 63.68C245.034 63.5333 244.754 63.39 244.534 63.25C244.314 63.1033 244.15 62.93 244.044 62.73C243.937 62.5233 243.884 62.2667 243.884 61.96C243.884 61.4533 244.08 61.0733 244.474 60.82C244.867 60.5667 245.39 60.44 246.044 60.44C246.384 60.44 246.707 60.4733 247.014 60.54C247.32 60.6067 247.637 60.7167 247.964 60.87L247.514 61.94C247.334 61.86 247.16 61.79 246.994 61.73C246.827 61.67 246.664 61.6233 246.504 61.59C246.35 61.5567 246.19 61.54 246.024 61.54C245.804 61.54 245.637 61.57 245.524 61.63C245.417 61.69 245.364 61.78 245.364 61.9C245.364 61.9867 245.39 62.0667 245.444 62.14C245.504 62.2067 245.614 62.28 245.774 62.36C245.94 62.44 246.184 62.5467 246.504 62.68C246.817 62.8067 247.087 62.94 247.314 63.08C247.54 63.2133 247.714 63.3833 247.834 63.59C247.96 63.79 248.024 64.0533 248.024 64.38ZM251.404 66.1C250.864 66.1 250.404 66.0033 250.024 65.81C249.644 65.61 249.354 65.3033 249.154 64.89C248.954 64.4767 248.854 63.9467 248.854 63.3C248.854 62.6333 248.968 62.09 249.194 61.67C249.421 61.25 249.734 60.94 250.134 60.74C250.541 60.54 251.008 60.44 251.534 60.44C251.908 60.44 252.231 60.4767 252.504 60.55C252.784 60.6233 253.028 60.71 253.234 60.81L252.794 61.96C252.561 61.8667 252.341 61.79 252.134 61.73C251.934 61.67 251.734 61.64 251.534 61.64C251.274 61.64 251.058 61.7033 250.884 61.83C250.711 61.95 250.581 62.1333 250.494 62.38C250.414 62.62 250.374 62.9233 250.374 63.29C250.374 63.65 250.418 63.95 250.504 64.19C250.598 64.4233 250.731 64.6 250.904 64.72C251.078 64.8333 251.288 64.89 251.534 64.89C251.848 64.89 252.124 64.85 252.364 64.77C252.604 64.6833 252.838 64.5667 253.064 64.42V65.69C252.838 65.8367 252.598 65.94 252.344 66C252.098 66.0667 251.784 66.1 251.404 66.1ZM255.811 59.95C255.811 60.2167 255.801 60.4733 255.781 60.72C255.768 60.9667 255.754 61.14 255.741 61.24H255.821C255.941 61.0533 256.081 60.9033 256.241 60.79C256.401 60.67 256.578 60.5833 256.771 60.53C256.971 60.47 257.181 60.44 257.401 60.44C257.794 60.44 258.138 60.51 258.431 60.65C258.724 60.79 258.951 61.0067 259.111 61.3C259.278 61.5933 259.361 61.9733 259.361 62.44V66H257.871V62.81C257.871 62.4167 257.798 62.1233 257.651 61.93C257.511 61.73 257.291 61.63 256.991 61.63C256.691 61.63 256.454 61.7 256.281 61.84C256.114 61.98 255.994 62.1833 255.921 62.45C255.848 62.7167 255.811 63.0433 255.811 63.43V66H254.321V58.4H255.811V59.95ZM263.143 60.44C263.65 60.44 264.083 60.5367 264.443 60.73C264.81 60.9233 265.093 61.2033 265.293 61.57C265.493 61.9367 265.593 62.3867 265.593 62.92V63.64H262.073C262.087 64.06 262.21 64.39 262.443 64.63C262.683 64.87 263.013 64.99 263.433 64.99C263.787 64.99 264.107 64.9567 264.393 64.89C264.68 64.8167 264.977 64.7067 265.283 64.56V65.71C265.017 65.8433 264.733 65.94 264.433 66C264.14 66.0667 263.783 66.1 263.363 66.1C262.817 66.1 262.333 66 261.913 65.8C261.493 65.5933 261.163 65.2833 260.923 64.87C260.683 64.4567 260.563 63.9367 260.563 63.31C260.563 62.67 260.67 62.14 260.883 61.72C261.103 61.2933 261.407 60.9733 261.793 60.76C262.18 60.5467 262.63 60.44 263.143 60.44ZM263.153 61.5C262.867 61.5 262.627 61.5933 262.433 61.78C262.247 61.9667 262.137 62.2567 262.103 62.65H264.193C264.193 62.43 264.153 62.2333 264.073 62.06C264 61.8867 263.887 61.75 263.733 61.65C263.58 61.55 263.387 61.5 263.153 61.5ZM273.211 60.44C273.831 60.44 274.298 60.6 274.611 60.92C274.931 61.2333 275.091 61.74 275.091 62.44V66H273.601V62.81C273.601 62.4167 273.535 62.1233 273.401 61.93C273.268 61.73 273.061 61.63 272.781 61.63C272.388 61.63 272.108 61.77 271.941 62.05C271.775 62.33 271.691 62.7333 271.691 63.26V66H270.201V62.81C270.201 62.55 270.171 62.3333 270.111 62.16C270.051 61.9867 269.961 61.8567 269.841 61.77C269.721 61.6767 269.568 61.63 269.381 61.63C269.108 61.63 268.891 61.7 268.731 61.84C268.571 61.98 268.458 62.1833 268.391 62.45C268.325 62.7167 268.291 63.0433 268.291 63.43V66H266.801V60.54H267.941L268.141 61.24H268.221C268.335 61.0533 268.475 60.9033 268.641 60.79C268.808 60.67 268.991 60.5833 269.191 60.53C269.398 60.47 269.605 60.44 269.811 60.44C270.211 60.44 270.551 60.5067 270.831 60.64C271.111 60.7667 271.325 60.9667 271.471 61.24H271.601C271.768 60.96 271.998 60.7567 272.291 60.63C272.591 60.5033 272.898 60.44 273.211 60.44ZM278.876 60.44C279.382 60.44 279.816 60.5367 280.176 60.73C280.542 60.9233 280.826 61.2033 281.026 61.57C281.226 61.9367 281.326 62.3867 281.326 62.92V63.64H277.806C277.819 64.06 277.942 64.39 278.176 64.63C278.416 64.87 278.746 64.99 279.166 64.99C279.519 64.99 279.839 64.9567 280.126 64.89C280.412 64.8167 280.709 64.7067 281.016 64.56V65.71C280.749 65.8433 280.466 65.94 280.166 66C279.872 66.0667 279.516 66.1 279.096 66.1C278.549 66.1 278.066 66 277.646 65.8C277.226 65.5933 276.896 65.2833 276.656 64.87C276.416 64.4567 276.296 63.9367 276.296 63.31C276.296 62.67 276.402 62.14 276.616 61.72C276.836 61.2933 277.139 60.9733 277.526 60.76C277.912 60.5467 278.362 60.44 278.876 60.44ZM278.886 61.5C278.599 61.5 278.359 61.5933 278.166 61.78C277.979 61.9667 277.869 62.2567 277.836 62.65H279.926C279.926 62.43 279.886 62.2333 279.806 62.06C279.732 61.8867 279.619 61.75 279.466 61.65C279.312 61.55 279.119 61.5 278.886 61.5ZM286.344 64.38C286.344 64.7467 286.257 65.06 286.084 65.32C285.911 65.5733 285.651 65.7667 285.304 65.9C284.957 66.0333 284.527 66.1 284.014 66.1C283.634 66.1 283.307 66.0733 283.034 66.02C282.761 65.9733 282.487 65.8933 282.214 65.78V64.55C282.507 64.6833 282.824 64.7933 283.164 64.88C283.504 64.9667 283.804 65.01 284.064 65.01C284.357 65.01 284.564 64.9667 284.684 64.88C284.811 64.7933 284.874 64.68 284.874 64.54C284.874 64.4467 284.847 64.3633 284.794 64.29C284.747 64.2167 284.641 64.1333 284.474 64.04C284.307 63.9467 284.047 63.8267 283.694 63.68C283.354 63.5333 283.074 63.39 282.854 63.25C282.634 63.1033 282.471 62.93 282.364 62.73C282.257 62.5233 282.204 62.2667 282.204 61.96C282.204 61.4533 282.401 61.0733 282.794 60.82C283.187 60.5667 283.711 60.44 284.364 60.44C284.704 60.44 285.027 60.4733 285.334 60.54C285.641 60.6067 285.957 60.7167 286.284 60.87L285.834 61.94C285.654 61.86 285.481 61.79 285.314 61.73C285.147 61.67 284.984 61.6233 284.824 61.59C284.671 61.5567 284.511 61.54 284.344 61.54C284.124 61.54 283.957 61.57 283.844 61.63C283.737 61.69 283.684 61.78 283.684 61.9C283.684 61.9867 283.711 62.0667 283.764 62.14C283.824 62.2067 283.934 62.28 284.094 62.36C284.261 62.44 284.504 62.5467 284.824 62.68C285.137 62.8067 285.407 62.94 285.634 63.08C285.861 63.2133 286.034 63.3833 286.154 63.59C286.281 63.79 286.344 64.0533 286.344 64.38Z" fill="url(#paint2_linear_720_16)"/>
<defs>
<linearGradient id="paint0_linear_720_16" x1="35" y1="0" x2="35" y2="80.5" gradientUnits="userSpaceOnUse">
<stop stop-color="#7550D8"/>
<stop offset="1" stop-color="#451EAE"/>
</linearGradient>
<linearGradient id="paint1_linear_720_16" x1="182.5" y1="21" x2="182.5" y2="55" gradientUnits="userSpaceOnUse">
<stop stop-color="#7550D8"/>
<stop offset="1" stop-color="#3D04D6" stop-opacity="0.75"/>
</linearGradient>
<linearGradient id="paint2_linear_720_16" x1="183" y1="59" x2="183" y2="69" gradientUnits="userSpaceOnUse">
<stop stop-color="#7550D8"/>
<stop offset="1" stop-color="#3D04D6" stop-opacity="0.75"/>
</linearGradient>
</defs>
</svg>
