<svg width="16" height="17" viewBox="0 0 16 17" fill="none" xmlns="http://www.w3.org/2000/svg">
<path d="M7.808 2.8C9.216 2.8 10.3733 3.088 11.28 3.664C12.1867 4.22933 12.6507 5.072 12.672 6.192V6.384H9.36V6.32C9.36 6 9.24267 5.73333 9.008 5.52C8.77333 5.30667 8.416 5.2 7.936 5.2C7.46667 5.2 7.104 5.26933 6.848 5.408C6.60267 5.54667 6.48 5.71733 6.48 5.92C6.48 6.208 6.65067 6.42133 6.992 6.56C7.33333 6.69867 7.88267 6.84267 8.64 6.992C9.52533 7.17333 10.2507 7.36533 10.816 7.568C11.392 7.76 11.8933 8.08 12.32 8.528C12.7467 8.976 12.9653 9.584 12.976 10.352C12.976 11.6533 12.5333 12.6187 11.648 13.248C10.7733 13.8773 9.6 14.192 8.128 14.192C6.41067 14.192 5.072 13.904 4.112 13.328C3.16267 12.752 2.688 11.7333 2.688 10.272H6.032C6.032 10.8267 6.176 11.2 6.464 11.392C6.752 11.5733 7.2 11.664 7.808 11.664C8.256 11.664 8.624 11.616 8.912 11.52C9.21067 11.424 9.36 11.2267 9.36 10.928C9.36 10.6613 9.19467 10.464 8.864 10.336C8.544 10.1973 8.016 10.0533 7.28 9.904C6.384 9.712 5.64267 9.51467 5.056 9.312C4.46933 9.09867 3.95733 8.752 3.52 8.272C3.08267 7.792 2.864 7.14133 2.864 6.32C2.864 5.11467 3.328 4.22933 4.256 3.664C5.19467 3.088 6.37867 2.8 7.808 2.8Z" fill="#A280FF"/>
<rect x="0.5" y="0.5" width="15" height="16" stroke="#A280FF"/>
</svg>
