<svg width="67" height="67" viewBox="0 0 67 67" fill="none" xmlns="http://www.w3.org/2000/svg">
<path d="M30.7676 0.958598C31.5369 0.338283 32.4953 0 33.4835 0C34.4718 0 35.4302 0.338283 36.1995 0.958598L40.4139 4.35692C41.3033 5.07415 42.4404 5.41044 43.5769 5.29238L48.9421 4.73596C49.9207 4.63436 50.9052 4.86937 51.7321 5.40221C52.5591 5.935 53.1803 6.73388 53.4923 7.667L55.2405 12.8904C55.5985 13.9627 56.3618 14.8523 57.3673 15.3688L62.2368 17.8602C63.1059 18.3048 63.7988 19.03 64.2032 19.918C64.6081 20.8061 64.7009 21.8049 64.466 22.7522L63.1284 28.1547C62.858 29.245 63.0226 30.3976 63.5868 31.3687L66.3769 36.1716C66.866 37.0135 67.057 37.9958 66.9191 38.9597C66.7808 39.9236 66.3214 40.8127 65.6155 41.4832L61.6166 45.2831C60.7996 46.0588 60.3177 47.1224 60.2727 48.2477L60.0502 53.7905C60.0119 54.7701 59.642 55.7076 59.0012 56.4499C58.3604 57.1917 57.4865 57.6937 56.5226 57.8741L51.1923 58.8719C50.0739 59.0816 49.0832 59.7228 48.4343 60.6575L45.3189 65.1407C44.756 65.9514 43.9329 66.5454 42.9861 66.8239C42.0394 67.1024 41.0258 67.0493 40.1136 66.6727L35.1316 64.6158C34.0742 64.1788 32.8869 64.1788 31.8294 64.6158L26.8474 66.6727C25.9352 67.0493 24.9216 67.1024 23.9748 66.8239C23.0281 66.5454 22.205 65.9514 21.6422 65.1407L18.5268 60.6575C17.8779 59.7228 16.8872 59.0816 15.7689 58.8719L10.4433 57.8741C9.47973 57.6937 8.60596 57.1917 7.96515 56.4499C7.3243 55.7076 6.95446 54.7701 6.91608 53.7905L6.69368 48.2472C6.64846 47.1218 6.16635 46.0586 5.34976 45.2831L1.34739 41.4824C0.641286 40.8119 0.181995 39.9228 0.0438019 38.9589C-0.0943915 37.995 0.0965906 37.0126 0.585862 36.1707L3.37583 31.3679C3.94008 30.3967 4.10455 29.2442 3.83448 28.1539L2.49661 22.7522C2.26204 21.8049 2.35461 20.8061 2.75929 19.918C3.16398 19.03 3.857 18.3048 4.72582 17.8602L9.59876 15.3688C10.6063 14.8533 11.3718 13.9636 11.731 12.8904L13.4791 7.667C13.7912 6.73388 14.4121 5.935 15.2393 5.40221C16.0665 4.86937 17.0505 4.63436 18.0292 4.73596L23.3945 5.29238C24.531 5.41044 25.668 5.07415 26.5575 4.35692L30.7676 0.958598Z" fill="#7C61E4"/>
<path d="M20 35.2596L27.8155 43L47 24" stroke="#20CC85" stroke-width="6" stroke-linecap="round"/>
</svg>
